<svg width="72" height="72" viewBox="0 0 72 72" fill="none" xmlns="http://www.w3.org/2000/svg">
<circle cx="36" cy="36" r="35.5" fill="white" stroke="#E8E8E8"/>
<path d="M36 54C32.287 54 28.726 52.525 26.1005 49.8995C23.475 47.274 22 43.713 22 40C22 28 36 24.616 36 16C36 24.606 50 28 50 40C50 43.713 48.525 47.274 45.8995 49.8995C43.274 52.525 39.713 54 36 54ZM36 54C31.58 54 28 50.34 28 46C28 42.64 29.976 40.62 31.976 38.706C33.3464 37.3866 34.6881 36.0376 36 34.66L29 27C35.516 34.002 39.194 37.908 40.034 38.716C42.022 40.63 44 42.648 44 46C44 50.346 40.42 54 36 54Z" stroke="#858585" stroke-linecap="round" stroke-linejoin="round"/>
</svg>
