<svg width="72" height="72" viewBox="0 0 72 72" fill="none" xmlns="http://www.w3.org/2000/svg">
<circle cx="36" cy="36" r="35.5" fill="white" stroke="#E8E8E8"/>
<path d="M36 32.348C39.532 26.78 42.63 24 45.296 24C49.296 24 51.822 28.426 53.296 34.434C54.704 40.172 54.296 48 49.296 48C47.068 48 44 44.87 41 40.696C39.0911 38.0658 37.4179 35.2723 36 32.348ZM36 32.348C32.468 26.78 29.37 24 26.704 24C22.704 24 20.178 28.426 18.704 34.434C17.296 40.172 17.704 48 22.704 48C24.932 48 28 44.87 31 40.696C33 37.914 34.666 35.13 36 32.348Z" stroke="#858585" stroke-linecap="round" stroke-linejoin="round"/>
</svg>
