<svg width="72" height="72" viewBox="0 0 72 72" fill="none" xmlns="http://www.w3.org/2000/svg">
<circle cx="36" cy="36" r="35.5" fill="white" stroke="#E8E8E8"/>
<path d="M31 30H37M20 30H25M34 30L40 52L48 34M48 34C48.354 32.944 50 31.272 50 29C50 25.44 48.448 24 46.25 24C44.454 24 44 25.624 44 26.858C44 30.518 48 30.974 48 34ZM23 30L30 52L36 38M18 36C18 38.3638 18.4656 40.7044 19.3702 42.8883C20.2748 45.0722 21.6006 47.0565 23.2721 48.7279C24.9435 50.3994 26.9278 51.7252 29.1117 52.6298C31.2956 53.5344 33.6362 54 36 54C38.3638 54 40.7044 53.5344 42.8883 52.6298C45.0722 51.7252 47.0565 50.3994 48.7279 48.7279C50.3994 47.0565 51.7252 45.0722 52.6298 42.8883C53.5344 40.7044 54 38.3638 54 36C54 33.6362 53.5344 31.2956 52.6298 29.1117C51.7252 26.9278 50.3994 24.9435 48.7279 23.2721C47.0565 21.6006 45.0722 20.2748 42.8883 19.3702C40.7044 18.4656 38.3638 18 36 18C33.6362 18 31.2956 18.4656 29.1117 19.3702C26.9278 20.2748 24.9435 21.6006 23.2721 23.2721C21.6006 24.9435 20.2748 26.9278 19.3702 29.1117C18.4656 31.2956 18 33.6362 18 36Z" stroke="#858585" stroke-linecap="round" stroke-linejoin="round"/>
</svg>
