<svg width="672" height="484" viewBox="0 0 672 484" fill="none" xmlns="http://www.w3.org/2000/svg">
<path opacity="0.41" d="M350.869 484C528.225 484 672 479.63 672 474.239C672 468.849 528.225 464.479 350.869 464.479C173.513 464.479 29.7372 468.849 29.7372 474.239C29.7372 479.63 173.513 484 350.869 484Z" fill="#D2DAE1"/>
<g opacity="0.41">
<path d="M20.9985 30.6089C20.3496 31.5199 19.8088 32.4743 19.3329 33.4287L15.5475 33.6456L14.228 38.3524L17.3429 40.4997C17.2996 41.042 17.2563 41.6059 17.2563 42.1482C17.2563 42.7121 17.2564 43.2761 17.2996 43.8184L14.1415 45.8573L15.3528 50.5858L19.1166 50.8895C19.5709 51.8872 20.1116 52.8416 20.7173 53.7526L19.0084 57.1363L22.4261 60.6284L25.8222 59.0017C26.7307 59.6524 27.6608 60.1946 28.6342 60.6935L28.8288 64.4677L33.5228 65.7908L35.6425 62.6673C36.1833 62.7107 36.7458 62.7541 37.3082 62.7541C37.8489 62.7541 38.4113 62.7541 38.9521 62.7107L41.007 65.8775L45.7225 64.6629L46.0254 60.8887C46.9988 60.4332 47.9721 59.9127 48.8806 59.2836L52.2551 60.9972L55.7376 57.5918L54.1153 54.1647C54.7642 53.2537 55.305 52.2993 55.8025 51.3449L59.5662 51.128L60.8857 46.4212L57.7709 44.2739C57.8142 43.7316 57.8574 43.1893 57.8574 42.6254C57.8574 42.0831 57.8574 41.5192 57.8141 40.9769L60.9723 38.9163L59.761 34.1878L55.9972 33.8842C55.5429 32.8864 55.0022 31.932 54.3965 30.9993L56.1054 27.6156L52.7093 24.1235L49.2916 25.7503C48.3831 25.0995 47.453 24.5573 46.4796 24.0801L46.2849 20.2843L41.591 18.9611L39.4496 22.0846C38.9088 22.0412 38.3464 21.9978 37.784 21.9978C37.2216 21.9978 36.6808 21.9978 36.1184 22.0412L34.0635 18.8527L29.348 20.0457L29.0452 23.8198C28.0501 24.2753 27.0984 24.8176 26.1899 25.4249L22.8155 23.7114L19.3329 27.1168L20.9552 30.5221L20.9985 30.6089ZM27.0335 31.5633C32.982 25.7286 42.5428 25.8587 48.3398 31.8236C54.1585 37.8101 54.0287 47.3756 48.0803 53.2103C42.1102 59.045 32.571 58.9149 26.7523 52.95C20.9336 46.9852 21.0634 37.398 27.0119 31.5633H27.0335Z" fill="#66C9C9"/>
<path d="M19.3111 27.1131C20.4792 25.9852 21.6472 24.8356 22.7937 23.7077C22.8369 23.6643 22.8802 23.6643 22.9234 23.7077C23.594 24.0547 24.2862 24.4017 24.9567 24.7488C25.2596 24.9006 25.7571 25.2911 26.1032 25.3344C26.5358 25.3778 27.1631 24.8139 27.5957 24.5753C28.0283 24.3367 28.8287 24.0981 29.0234 23.7077C29.1748 23.404 29.0883 22.775 29.1316 22.4279C29.1964 21.6688 29.2613 20.9096 29.3046 20.1287C29.3046 20.0854 29.3262 20.042 29.3911 20.042C30.9702 19.6515 32.5276 19.2394 34.1066 18.849C34.1499 18.849 34.1931 18.849 34.2147 18.8924C34.9069 19.9552 35.5991 20.9964 36.2697 22.0592C36.2913 22.1026 36.2697 22.1676 36.2265 22.1893C37.0917 21.7121 38.5842 21.864 39.4278 22.2327C39.3629 22.211 39.3196 22.146 39.3629 22.0809L41.5044 18.9575C41.5044 18.9575 41.5693 18.8924 41.6125 18.9141C43.1699 19.3479 44.7274 19.8034 46.3064 20.2372C46.3497 20.2372 46.3713 20.2806 46.3713 20.3456C46.4146 21.1048 46.4579 21.8857 46.5011 22.6448C46.5011 22.9919 46.4362 23.6209 46.566 23.9246C46.739 24.315 47.5394 24.5753 47.972 24.8139C48.4046 25.0742 49.0103 25.6598 49.4429 25.6164C49.789 25.5947 50.2865 25.2043 50.5893 25.0742L52.6658 24.0981C52.6658 24.0981 52.7524 24.0981 52.7957 24.0981C53.9205 25.2694 55.0669 26.419 56.1917 27.5902C56.2349 27.6336 56.2349 27.677 56.1917 27.7204C55.8456 28.3928 55.4995 29.0869 55.1534 29.7593C55.002 30.063 54.6126 30.5618 54.5694 30.9089C54.5261 31.3427 55.0885 31.9717 55.3481 32.4055C55.5861 32.8393 55.824 33.6419 56.2133 33.8371C56.5162 33.9889 57.1435 33.9021 57.4895 33.9455C58.2466 34.0106 59.0037 34.054 59.7608 34.1191C59.8041 34.1191 59.8473 34.1408 59.8473 34.2058C60.2583 35.7892 60.6476 37.3509 61.0586 38.9343C61.0586 38.9777 61.0586 39.0211 61.0153 39.0428C60.215 39.5634 59.4147 40.0839 58.636 40.6045C58.0736 40.9732 58.0519 40.9515 57.9438 41.5806C57.7924 42.4265 58.2466 43.511 57.6842 44.2702C57.7058 44.2268 57.7707 44.2051 57.814 44.2268C58.8523 44.9426 59.8906 45.6584 60.9288 46.3742C60.9721 46.3958 60.9938 46.4392 60.9721 46.4826C60.5395 48.0443 60.0853 49.606 59.6527 51.1894C59.6527 51.2328 59.6093 51.2545 59.5444 51.2545C58.7874 51.2979 58.0303 51.3413 57.2516 51.3846C56.9055 51.3846 56.2783 51.3196 55.9754 51.4497C55.5644 51.6232 55.3265 52.4258 55.0669 52.8596C54.8073 53.2934 54.2233 53.9007 54.2666 54.3345C54.2882 54.6816 54.6776 55.1805 54.8073 55.4841C55.1318 56.1782 55.4562 56.8723 55.7807 57.5664C55.7807 57.6098 55.7807 57.6532 55.7807 57.6966C54.6126 58.8245 53.4662 59.974 52.2982 61.1019C52.2549 61.1453 52.2116 61.1453 52.1684 61.1019C51.4978 60.7549 50.8056 60.4078 50.1351 60.0608C49.8322 59.909 49.3347 59.5185 48.9886 59.4752C48.556 59.4318 47.9287 59.9957 47.4961 60.256C47.0635 60.4946 46.2632 60.7332 46.0901 61.1236C45.9387 61.4273 46.0252 62.0563 45.9819 62.4034C45.917 63.1625 45.8522 63.9217 45.8089 64.6808C45.8089 64.7242 45.7873 64.7676 45.7224 64.7676C44.1433 65.1797 42.5859 65.5702 41.0069 65.9823C40.9636 65.9823 40.9204 65.9823 40.8987 65.9389C40.4877 65.2882 40.0767 64.6592 39.6441 64.0084C39.4711 63.7265 39.2115 63.1192 38.9519 62.9456C38.6058 62.6853 37.7622 62.8588 37.2864 62.8588C36.8105 62.8588 35.9669 62.6636 35.5992 62.9022C35.318 63.0758 35.0584 63.6831 34.8854 63.9651C34.4527 64.5941 34.0201 65.2231 33.6091 65.8521C33.5875 65.8955 33.5442 65.9172 33.501 65.8955C31.9435 65.4617 30.3645 65.0062 28.807 64.5724C28.7638 64.5724 28.7421 64.5073 28.7421 64.464C28.6989 63.7048 28.6556 62.9456 28.6124 62.1648C28.6124 61.8177 28.6773 61.2104 28.5475 60.885C28.3744 60.4946 27.5741 60.2343 27.1415 59.974C26.7089 59.7137 26.1032 59.1281 25.6706 59.1715C25.3245 59.1932 24.827 59.5836 24.5242 59.7137C23.832 60.0391 23.1398 60.3645 22.4692 60.7115C22.426 60.7115 22.3827 60.7115 22.3394 60.7115C21.193 59.5402 20.0682 58.3906 18.9218 57.2194C18.8785 57.176 18.8785 57.1326 18.9218 57.0892C19.2679 56.4168 19.6139 55.7227 19.96 55.0503C20.1114 54.7467 20.5008 54.2478 20.5441 53.9007C20.5874 53.4669 20.0249 52.8379 19.7654 52.4041C19.5274 51.9703 19.2895 51.1677 18.9001 50.9725C18.5973 50.8207 17.97 50.9074 17.6239 50.8641C16.8669 50.799 16.1098 50.7339 15.3311 50.6905C15.2878 50.6905 15.2445 50.6688 15.2445 50.6038C14.8335 49.0204 14.4442 47.4587 14.0332 45.8753C14.0332 45.8319 14.0332 45.7885 14.0764 45.7668C15.1364 45.0727 16.1747 44.4003 17.2346 43.7062C17.2779 43.6845 17.3427 43.7062 17.3644 43.7496C17.0183 42.9687 17.1481 42.1445 17.1697 41.3203C17.1697 40.431 17.2129 40.5394 16.5207 40.0622C15.742 39.52 14.9633 38.9777 14.1846 38.4355C14.1414 38.4138 14.1197 38.3704 14.1413 38.327C14.5739 36.7653 15.0282 35.2036 15.4608 33.6202C15.4608 33.5768 15.5257 33.5551 15.569 33.5551C16.3261 33.5117 17.1048 33.4684 17.8618 33.425C18.2079 33.425 18.8352 33.49 19.138 33.3599C19.5274 33.1864 19.787 32.3838 20.0249 31.95C20.2845 31.5162 20.8686 30.9089 20.8253 30.4751C20.8037 30.128 20.4143 29.6291 20.2845 29.3255C19.9601 28.6314 19.6356 27.9373 19.2895 27.2432C19.2246 27.1347 19.4193 27.0263 19.4626 27.1348C19.8952 28.0457 20.7821 29.2604 20.9551 30.2582C21.1281 31.3427 19.9384 32.4706 19.4193 33.49C19.4193 33.5334 19.3544 33.5334 19.3328 33.5334C18.5541 33.5768 16.0881 33.3165 15.6339 33.7069C15.3743 33.9238 15.2878 34.8999 15.2013 35.247C14.985 36.0495 14.5956 36.9388 14.4874 37.7847C14.4009 38.5005 14.2495 38.0884 14.7686 38.609C15.331 39.1512 16.1314 39.5417 16.7587 39.9972C17.9917 40.8865 17.2994 42.3397 17.386 43.8364C17.386 43.9448 17.2345 43.9665 17.1913 43.8797C17.3211 44.1834 14.336 45.615 14.2711 46.1138C14.1846 46.7863 14.747 47.9576 14.8984 48.6083C14.9849 48.9336 15.2012 50.3869 15.3527 50.517C16.1746 51.1677 18.1863 50.2784 19.1165 50.8207C19.3328 50.9508 20.7604 53.4886 20.7604 53.7489C20.7604 54.0525 20.4792 54.3996 20.3278 54.6599C20.0466 55.2238 19.138 56.3951 19.138 57.0241C19.138 57.3495 19.8086 57.8918 20.1764 58.2605C20.7171 58.8244 21.4093 59.8656 22.1015 60.2343C22.6856 60.5597 22.6206 60.4295 23.4859 60.0174C24.005 59.7788 25.0866 58.9546 25.6706 58.9763C26.2114 58.9763 26.9901 59.7354 27.4876 60.0174C27.8769 60.256 28.461 60.4079 28.6989 60.7766C29.0017 61.2972 28.8071 62.7938 28.8503 63.4011C28.9152 64.4422 28.7205 64.3121 29.5858 64.6158C30.5808 64.9628 31.6407 65.2014 32.6573 65.4834C33.6523 65.7654 33.4577 65.722 34.0417 64.8761C34.5392 64.1386 35.0368 63.4011 35.5559 62.6636C35.5559 62.642 35.5991 62.6203 35.6424 62.6203C36.4211 62.6853 38.3895 62.3383 38.9952 62.6853C39.3629 62.9022 39.7307 63.7915 39.947 64.1386C40.1633 64.4856 40.8338 65.7654 41.0718 65.8087C41.699 65.9606 43.0834 65.2882 43.7107 65.1363C44.0568 65.0496 45.4845 64.8327 45.6142 64.6808C45.9387 64.2687 45.7873 62.5986 45.8306 62.0563C45.8522 61.7526 45.7873 61.1453 45.9387 60.885C46.155 60.5597 48.556 59.2582 48.8805 59.2582C49.9404 59.2582 51.3896 61.0585 52.2765 60.885C52.7524 60.7766 55.5644 58.0002 55.6077 57.6748C55.7591 56.612 53.9421 55.3323 54.007 54.2261C54.007 53.879 55.4346 51.5365 55.7375 51.3412C56.1052 51.1026 57.23 51.2545 57.6626 51.2328C58.463 51.1894 59.22 51.3196 59.5444 50.8641C60.0636 50.1266 60.1718 48.6082 60.4314 47.7406C60.7342 46.6561 60.9506 46.7212 60.0637 46.1138C59.7609 45.8969 57.7491 44.6172 57.8357 44.4871C57.7708 44.5521 57.641 44.5522 57.641 44.4437C57.7059 43.6412 57.3598 41.7324 57.7059 41.0817C57.8357 40.8431 58.463 40.5611 58.6576 40.4526C59.0686 40.1707 60.6693 39.4983 60.8424 39.0211C60.8856 38.8693 60.4963 37.7847 60.4314 37.5245C60.2367 36.7436 60.1718 35.3988 59.7175 34.7264C59.4363 34.2926 59.3714 34.4227 58.636 34.3576C57.9871 34.3143 56.6676 34.4661 56.1052 34.1624C55.6726 33.9238 55.5644 33.425 55.3048 32.9261C55.0669 32.4923 54.2665 31.5813 54.2882 31.1258C54.3098 30.5402 55.0669 29.5858 55.3265 29.0869C55.5428 28.6748 55.9538 28.0024 55.8889 27.7638C55.7807 27.2215 54.418 26.2454 54.0286 25.855C53.769 25.573 53.012 24.5319 52.6443 24.4234C52.4063 24.3584 51.0219 25.226 50.6758 25.3995C50.3298 25.573 49.6808 26.0285 49.3131 26.0502C48.6642 26.0502 47.0419 24.6837 46.4146 24.3584C46.3713 24.3584 46.3713 24.2933 46.3713 24.2716C46.3281 23.3172 46.5443 21.8206 46.1982 20.9313C45.917 20.2372 44.8355 20.1938 43.9054 19.9335C42.9969 19.6733 41.9803 19.1093 41.4179 19.5865C41.0069 19.9335 39.8388 22.3412 39.4927 22.1893C39.5792 22.2327 39.5792 22.4062 39.4711 22.3845C38.3679 22.2978 37.2647 22.2761 36.1399 22.3412C36.0318 22.3412 36.0102 22.1893 36.0967 22.1459C35.8371 22.2978 34.6258 19.8034 34.258 19.478C33.6956 18.9791 32.679 19.5214 31.7705 19.76C30.8404 19.9986 29.7156 19.9986 29.456 20.7144C29.1099 21.6688 29.6723 23.1654 29.1964 24.0547C29.045 24.3367 26.5358 25.7683 26.2114 25.7466C25.4543 25.7032 24.3079 24.7922 23.6373 24.4451C22.5774 23.9029 22.6423 24.2933 21.7338 25.1826C20.9767 25.9201 20.198 26.6792 19.4409 27.4167C19.3544 27.5035 19.203 27.3733 19.2895 27.2649L19.3111 27.1131Z" fill="#66C9C9"/>
<path d="M26.8603 52.8808C31.3162 57.3056 38.0435 58.6938 43.7973 56.0693C49.378 53.5098 52.8822 47.6317 52.5145 41.4933C52.1468 35.1597 47.6259 29.6286 41.5476 27.9368C35.4694 26.2449 28.872 28.696 25.2596 33.88C21.1498 39.7798 22.0366 47.7401 26.8603 52.9025C26.9468 52.9892 26.7954 53.1411 26.7088 53.0543C22.4259 48.4776 21.1497 41.7536 23.8103 36.0056C26.5574 30.0842 32.9602 26.5486 39.4062 27.3295C45.571 28.0669 50.8056 32.7087 52.2982 38.7603C53.834 44.9855 51.2166 51.6661 45.8738 55.18C39.7955 59.171 31.8137 58.1299 26.7088 53.076C26.6223 52.9892 26.7521 52.8374 26.8603 52.9241V52.8808Z" fill="#66C9C9"/>
</g>
<g opacity="0.41">
<path d="M138.324 172.396C138 172.852 137.74 173.307 137.502 173.784L135.642 173.893L134.993 176.214L136.529 177.277C136.529 177.537 136.485 177.819 136.485 178.079C136.485 178.361 136.485 178.621 136.507 178.903L134.95 179.901L135.534 182.222L137.394 182.374C137.61 182.851 137.87 183.328 138.173 183.784L137.329 185.454L138.995 187.167L140.66 186.365C141.114 186.69 141.569 186.951 142.045 187.189L142.153 189.054L144.467 189.705L145.506 188.165C145.765 188.187 146.046 188.209 146.327 188.209C146.587 188.209 146.868 188.209 147.128 188.209L148.144 189.77L150.459 189.185L150.61 187.341C151.086 187.124 151.562 186.864 152.016 186.56L153.66 187.406L155.369 185.736L154.569 184.066C154.893 183.61 155.153 183.155 155.391 182.677L157.251 182.569L157.9 180.248L156.364 179.185C156.386 178.925 156.407 178.643 156.407 178.383C156.407 178.123 156.407 177.841 156.407 177.58L157.965 176.561L157.381 174.24L155.542 174.088C155.326 173.589 155.066 173.134 154.742 172.678L155.585 171.03L153.92 169.316L152.254 170.119C151.8 169.793 151.346 169.533 150.87 169.295L150.762 167.429L148.447 166.778L147.387 168.318C147.106 168.318 146.847 168.275 146.565 168.275C146.284 168.275 146.025 168.275 145.743 168.297L144.727 166.735L142.412 167.321L142.261 169.186C141.785 169.403 141.309 169.663 140.855 169.967L139.211 169.121L137.502 170.791L138.302 172.461L138.324 172.396ZM141.287 172.873C144.208 170.01 148.901 170.075 151.757 173.004C154.612 175.932 154.547 180.639 151.627 183.502C148.707 186.365 144.013 186.3 141.158 183.372C138.302 180.443 138.367 175.737 141.287 172.873Z" fill="#66C9C9"/>
<path d="M137.48 170.684C138.043 170.12 138.627 169.556 139.189 169.013C139.189 169.013 139.233 169.013 139.254 169.013C139.579 169.187 139.925 169.36 140.249 169.512C140.401 169.577 140.638 169.773 140.812 169.794C141.028 169.816 141.331 169.534 141.547 169.426C141.763 169.317 142.153 169.187 142.239 168.992C142.304 168.84 142.282 168.536 142.282 168.363C142.304 167.994 142.347 167.604 142.369 167.235C142.369 167.213 142.369 167.191 142.412 167.191C143.191 166.996 143.948 166.801 144.727 166.606C144.748 166.606 144.77 166.606 144.792 166.627C145.138 167.148 145.462 167.669 145.808 168.189C145.808 168.211 145.808 168.254 145.808 168.254C146.241 168.016 146.976 168.102 147.387 168.276C147.366 168.276 147.344 168.233 147.366 168.211L148.426 166.671C148.426 166.671 148.469 166.649 148.49 166.649C149.269 166.866 150.026 167.083 150.805 167.3C150.827 167.3 150.848 167.322 150.848 167.343C150.848 167.712 150.892 168.102 150.913 168.471C150.913 168.645 150.87 168.948 150.956 169.1C151.043 169.295 151.432 169.426 151.649 169.534C151.865 169.664 152.168 169.946 152.384 169.924C152.557 169.924 152.795 169.729 152.946 169.664L153.963 169.187C153.963 169.187 154.006 169.187 154.028 169.187C154.59 169.751 155.153 170.337 155.694 170.9C155.694 170.9 155.694 170.944 155.694 170.966C155.52 171.291 155.347 171.638 155.174 171.963C155.11 172.115 154.915 172.354 154.893 172.527C154.872 172.744 155.153 173.048 155.261 173.265C155.369 173.482 155.499 173.872 155.694 173.959C155.845 174.024 156.148 174.002 156.321 174.002C156.689 174.024 157.078 174.067 157.446 174.089C157.467 174.089 157.489 174.089 157.489 174.132C157.684 174.913 157.878 175.672 158.073 176.453C158.073 176.475 158.073 176.497 158.051 176.518C157.662 176.779 157.273 177.039 156.883 177.277C156.602 177.451 156.58 177.451 156.537 177.755C156.472 178.167 156.689 178.709 156.407 179.078C156.407 179.078 156.451 179.034 156.472 179.078C156.991 179.425 157.489 179.772 158.008 180.141C158.008 180.141 158.03 180.184 158.03 180.206C157.813 180.987 157.597 181.746 157.381 182.527C157.381 182.548 157.359 182.57 157.338 182.57C156.97 182.57 156.58 182.613 156.213 182.635C156.04 182.635 155.737 182.592 155.585 182.678C155.391 182.765 155.261 183.156 155.131 183.372C155.001 183.589 154.72 183.893 154.742 184.11C154.742 184.283 154.936 184.522 155.001 184.674C155.153 185.021 155.326 185.346 155.477 185.693C155.477 185.693 155.477 185.737 155.477 185.758C154.915 186.322 154.331 186.886 153.768 187.429C153.768 187.429 153.725 187.429 153.704 187.429C153.379 187.255 153.033 187.082 152.708 186.908C152.557 186.843 152.319 186.648 152.146 186.626C151.93 186.604 151.627 186.886 151.411 186.995C151.194 187.103 150.805 187.233 150.718 187.429C150.654 187.58 150.675 187.884 150.675 188.058C150.654 188.426 150.61 188.817 150.589 189.186C150.589 189.207 150.589 189.229 150.545 189.229C149.767 189.424 148.988 189.619 148.231 189.815C148.209 189.815 148.188 189.815 148.166 189.793C147.971 189.467 147.755 189.164 147.56 188.838C147.474 188.708 147.344 188.405 147.214 188.318C147.041 188.188 146.63 188.275 146.392 188.275C146.154 188.275 145.743 188.188 145.57 188.275C145.441 188.361 145.311 188.665 145.224 188.795C145.008 189.099 144.813 189.424 144.597 189.728C144.597 189.728 144.554 189.749 144.532 189.749C143.753 189.533 142.996 189.316 142.218 189.099C142.196 189.099 142.174 189.077 142.174 189.055C142.174 188.687 142.131 188.296 142.109 187.927C142.109 187.754 142.153 187.45 142.066 187.298C141.98 187.103 141.59 186.973 141.374 186.843C141.158 186.713 140.855 186.431 140.66 186.453C140.487 186.453 140.249 186.648 140.098 186.713C139.752 186.865 139.427 187.038 139.081 187.19C139.081 187.19 139.038 187.19 139.016 187.19C138.454 186.626 137.891 186.04 137.351 185.476C137.351 185.476 137.351 185.433 137.351 185.411C137.524 185.086 137.697 184.739 137.87 184.414C137.935 184.262 138.129 184.023 138.151 183.85C138.173 183.633 137.891 183.329 137.783 183.112C137.675 182.895 137.545 182.505 137.351 182.418C137.199 182.353 136.896 182.375 136.723 182.375C136.356 182.353 135.966 182.31 135.599 182.288C135.577 182.288 135.555 182.288 135.555 182.245C135.361 181.464 135.166 180.683 134.971 179.924C134.971 179.902 134.971 179.88 134.993 179.859C135.512 179.512 136.031 179.186 136.55 178.839H136.615C136.442 178.47 136.507 178.058 136.507 177.646C136.507 177.212 136.507 177.256 136.182 177.017C135.793 176.757 135.404 176.497 135.036 176.215C135.036 176.215 135.014 176.171 135.014 176.15C135.231 175.369 135.447 174.61 135.663 173.829C135.663 173.807 135.685 173.785 135.707 173.785C136.074 173.785 136.464 173.742 136.832 173.72C137.005 173.72 137.307 173.764 137.459 173.677C137.653 173.59 137.783 173.2 137.891 172.983C138.021 172.766 138.302 172.462 138.281 172.267C138.281 172.093 138.086 171.855 138 171.703C137.848 171.356 137.675 171.031 137.524 170.684C137.502 170.619 137.589 170.575 137.61 170.64C137.827 171.096 138.259 171.681 138.346 172.18C138.432 172.701 137.848 173.265 137.589 173.764C137.589 173.764 137.567 173.785 137.545 173.785C137.156 173.785 135.945 173.677 135.728 173.872C135.599 173.981 135.555 174.458 135.512 174.631C135.404 175.022 135.209 175.455 135.166 175.868C135.123 176.215 135.058 176.019 135.296 176.28C135.577 176.54 135.966 176.735 136.269 176.952C136.875 177.386 136.55 178.102 136.572 178.839C136.572 178.883 136.507 178.904 136.485 178.861C136.55 179.013 135.079 179.707 135.058 179.945C135.015 180.271 135.296 180.856 135.361 181.182C135.404 181.334 135.512 182.049 135.577 182.114C135.988 182.44 136.961 182.006 137.437 182.266C137.545 182.331 138.259 183.568 138.237 183.698C138.237 183.85 138.086 184.023 138.021 184.153C137.87 184.435 137.437 184.999 137.437 185.325C137.437 185.476 137.762 185.758 137.956 185.932C138.216 186.214 138.562 186.713 138.908 186.908C139.189 187.06 139.168 186.995 139.579 186.8C139.838 186.669 140.379 186.279 140.66 186.279C140.92 186.279 141.309 186.648 141.547 186.8C141.742 186.908 142.023 186.995 142.131 187.168C142.282 187.429 142.174 188.166 142.196 188.448C142.218 188.947 142.131 188.882 142.542 189.034C143.039 189.207 143.559 189.316 144.056 189.468C144.532 189.598 144.446 189.598 144.748 189.164C144.986 188.795 145.246 188.448 145.484 188.079C145.484 188.079 145.505 188.058 145.527 188.058C145.916 188.079 146.868 187.906 147.171 188.079C147.344 188.188 147.539 188.622 147.647 188.795C147.755 188.969 148.08 189.598 148.209 189.619C148.512 189.684 149.204 189.359 149.507 189.294C149.68 189.251 150.372 189.142 150.437 189.077C150.61 188.86 150.524 188.058 150.545 187.797C150.545 187.646 150.524 187.342 150.61 187.212C150.719 187.06 151.887 186.409 152.06 186.409C152.579 186.409 153.293 187.298 153.725 187.212C153.963 187.168 155.348 185.802 155.369 185.628C155.434 185.108 154.547 184.479 154.59 183.936C154.59 183.763 155.304 182.613 155.434 182.527C155.607 182.396 156.169 182.483 156.386 182.461C156.775 182.44 157.143 182.505 157.316 182.266C157.575 181.898 157.619 181.16 157.748 180.726C157.9 180.206 158.008 180.227 157.554 179.924C157.402 179.815 156.407 179.186 156.472 179.121C156.451 179.165 156.364 179.143 156.386 179.099C156.429 178.709 156.256 177.776 156.429 177.451C156.494 177.343 156.797 177.191 156.905 177.147C157.121 177.017 157.9 176.67 157.986 176.453C158.008 176.388 157.813 175.846 157.792 175.716C157.705 175.325 157.662 174.675 157.446 174.349C157.316 174.132 157.273 174.197 156.905 174.176C156.58 174.154 155.931 174.241 155.65 174.089C155.434 173.981 155.391 173.72 155.261 173.482C155.153 173.265 154.742 172.809 154.763 172.592C154.763 172.31 155.153 171.833 155.283 171.595C155.391 171.399 155.585 171.052 155.564 170.944C155.499 170.684 154.828 170.206 154.655 170.011C154.526 169.881 154.158 169.36 153.963 169.317C153.855 169.295 153.163 169.708 152.99 169.794C152.817 169.881 152.514 170.098 152.319 170.12C151.995 170.12 151.216 169.447 150.892 169.295C150.892 169.295 150.87 169.274 150.87 169.252C150.848 168.775 150.956 168.037 150.783 167.604C150.654 167.257 150.113 167.235 149.659 167.105C149.204 166.975 148.707 166.714 148.447 166.931C148.253 167.105 147.669 168.298 147.496 168.211C147.539 168.211 147.539 168.319 147.496 168.319C146.955 168.276 146.414 168.276 145.852 168.319C145.808 168.319 145.787 168.254 145.83 168.233C145.7 168.298 145.094 167.083 144.921 166.931C144.64 166.693 144.143 166.931 143.688 167.061C143.234 167.17 142.672 167.191 142.542 167.538C142.369 168.016 142.65 168.731 142.412 169.187C142.347 169.317 141.093 170.033 140.941 170.011C140.574 170.011 140.011 169.534 139.665 169.36C139.146 169.1 139.168 169.295 138.735 169.729C138.367 170.098 137.978 170.467 137.61 170.835C137.567 170.879 137.502 170.814 137.545 170.77L137.48 170.684Z" fill="#66C9C9"/>
<path d="M141.201 183.349C143.386 185.518 146.695 186.212 149.529 184.911C152.276 183.653 153.985 180.768 153.812 177.753C153.617 174.629 151.411 171.918 148.426 171.094C145.44 170.27 142.196 171.463 140.422 174.022C138.41 176.929 138.843 180.833 141.201 183.371C141.244 183.414 141.179 183.479 141.136 183.436C139.038 181.18 138.41 177.883 139.708 175.042C141.049 172.135 144.208 170.4 147.366 170.768C150.394 171.137 152.968 173.415 153.703 176.386C154.461 179.445 153.184 182.72 150.545 184.455C147.56 186.429 143.623 185.908 141.114 183.414C141.071 183.371 141.136 183.306 141.179 183.349H141.201Z" fill="#66C9C9"/>
</g>
<g opacity="0.41">
<path d="M247.776 5.7923C247.452 6.2478 247.192 6.7033 246.954 7.18049L245.094 7.28895L244.445 9.60982L245.981 10.6726C245.981 10.9329 245.938 11.2149 245.938 11.4752C245.938 11.7572 245.937 12.0175 245.959 12.2994L244.402 13.2972L244.986 15.6181L246.846 15.7699C247.062 16.2471 247.322 16.7243 247.625 17.1798L246.781 18.8499L248.447 20.5635L250.112 19.7609C250.566 20.0863 251.021 20.3466 251.497 20.5852L251.605 22.4505L253.919 23.1013L254.958 21.5612C255.217 21.5829 255.498 21.6046 255.78 21.6046C256.039 21.6046 256.32 21.6046 256.58 21.6046L257.596 23.1663L259.911 22.5807L260.062 20.737C260.538 20.5201 261.014 20.2598 261.468 19.9561L263.112 20.8021L264.821 19.1319L264.021 17.4618C264.345 17.0063 264.605 16.5507 264.843 16.0736L266.703 15.9651L267.352 13.6442L265.816 12.5814C265.838 12.3211 265.859 12.0391 265.859 11.7789C265.859 11.5186 265.859 11.2366 265.859 10.9763L267.417 9.95686L266.833 7.63598L264.994 7.48415C264.778 6.98527 264.518 6.52979 264.194 6.07429L265.037 4.42581L263.372 2.71227L261.706 3.51482C261.252 3.18946 260.798 2.92917 260.322 2.69057L260.214 0.825196L257.899 0.174494L256.839 1.71451C256.558 1.71451 256.299 1.67112 256.017 1.67112C255.736 1.67112 255.477 1.67113 255.195 1.69282L254.179 0.131104L251.864 0.716754L251.713 2.58213C251.237 2.79904 250.761 3.05932 250.307 3.36299L248.663 2.51705L246.954 4.18722L247.754 5.85737L247.776 5.7923ZM250.761 6.26949C253.681 3.40636 258.375 3.47143 261.231 6.39963C264.086 9.32784 264.021 14.0347 261.101 16.8978C258.18 19.7609 253.487 19.6959 250.631 16.7676C247.776 13.8394 247.841 9.13263 250.761 6.26949Z" fill="#66C9C9"/>
<path d="M246.954 4.07779C247.516 3.51384 248.1 2.9499 248.663 2.40764C248.663 2.40764 248.706 2.40764 248.727 2.40764C249.052 2.58116 249.398 2.75467 249.723 2.90651C249.874 2.97158 250.112 3.1668 250.285 3.18849C250.501 3.21018 250.804 2.92821 251.02 2.81976C251.237 2.71131 251.626 2.58116 251.713 2.38594C251.777 2.23411 251.756 1.93044 251.756 1.75692C251.777 1.38818 251.821 0.997761 251.842 0.629024C251.842 0.607334 251.842 0.585634 251.886 0.585634C252.664 0.39042 253.421 0.195214 254.2 0C254.222 0 254.243 4.63406e-06 254.265 0.021695C254.611 0.542265 254.936 1.06282 255.282 1.58339C255.282 1.60508 255.282 1.64848 255.282 1.64848C255.714 1.40988 256.45 1.49663 256.861 1.67015C256.839 1.67015 256.817 1.62678 256.839 1.60509L257.899 0.0650686C257.899 0.0650686 257.942 0.0433735 257.964 0.0433735C258.743 0.260278 259.5 0.477188 260.278 0.694093C260.3 0.694093 260.322 0.715776 260.322 0.737466C260.322 1.1062 260.365 1.49664 260.387 1.86538C260.387 2.0389 260.343 2.34257 260.43 2.4944C260.516 2.68961 260.906 2.81975 261.122 2.9282C261.338 3.05835 261.641 3.34032 261.857 3.31863C262.03 3.31863 262.268 3.12341 262.42 3.05834L263.436 2.58116C263.436 2.58116 263.48 2.58116 263.501 2.58116C264.064 3.14512 264.626 3.73074 265.167 4.29469C265.167 4.29469 265.167 4.33809 265.167 4.35978C264.994 4.68513 264.821 5.03218 264.648 5.35753C264.583 5.50937 264.388 5.74795 264.367 5.92147C264.345 6.13838 264.626 6.44205 264.734 6.65896C264.843 6.87586 264.972 7.26629 265.167 7.35305C265.318 7.41812 265.621 7.39642 265.794 7.39642C266.162 7.41811 266.551 7.4615 266.919 7.48319C266.941 7.48319 266.962 7.4832 266.962 7.52658C267.157 8.30743 267.352 9.0666 267.546 9.84745C267.546 9.86914 267.546 9.89083 267.525 9.91252C267.135 10.1728 266.746 10.4331 266.357 10.6717C266.075 10.8452 266.054 10.8452 266.01 11.1489C265.946 11.561 266.162 12.1033 265.881 12.472C265.881 12.472 265.924 12.4286 265.946 12.472C266.465 12.819 266.962 13.1661 267.481 13.5348C267.481 13.5348 267.503 13.5782 267.503 13.5999C267.287 14.3807 267.07 15.1399 266.854 15.9208C266.854 15.9424 266.832 15.9641 266.811 15.9641C266.443 15.9641 266.054 16.0075 265.686 16.0292C265.513 16.0292 265.21 15.9858 265.059 16.0726C264.864 16.1593 264.734 16.5498 264.605 16.7667C264.475 16.9836 264.193 17.2873 264.215 17.5042C264.215 17.6777 264.41 17.9163 264.475 18.0681C264.626 18.4152 264.799 18.7405 264.951 19.0876C264.951 19.0876 264.951 19.1309 264.951 19.1526C264.388 19.7166 263.804 20.2805 263.242 20.8228C263.242 20.8228 263.198 20.8228 263.177 20.8228C262.852 20.6493 262.506 20.4758 262.182 20.3022C262.03 20.2372 261.793 20.0419 261.62 20.0202C261.403 19.9986 261.1 20.2805 260.884 20.389C260.668 20.4974 260.278 20.6276 260.192 20.8228C260.127 20.9746 260.149 21.2783 260.149 21.4518C260.127 21.8206 260.084 22.211 260.062 22.5797C260.062 22.6014 260.062 22.6231 260.019 22.6231C259.24 22.8183 258.461 23.0135 257.704 23.2087C257.683 23.2087 257.661 23.2087 257.639 23.1871C257.445 22.8617 257.228 22.558 257.034 22.2327C256.947 22.1025 256.817 21.7989 256.688 21.7121C256.515 21.582 256.104 21.6687 255.866 21.6687C255.628 21.6687 255.217 21.582 255.044 21.6687C254.914 21.7555 254.784 22.0591 254.698 22.1893C254.481 22.493 254.287 22.8183 254.07 23.122C254.07 23.122 254.027 23.1437 254.005 23.1437C253.227 22.9268 252.47 22.7099 251.691 22.493C251.669 22.493 251.648 22.4713 251.648 22.4496C251.648 22.0808 251.604 21.6904 251.583 21.3217C251.583 21.1482 251.626 20.8445 251.539 20.6927C251.453 20.4974 251.064 20.3673 250.847 20.2372C250.631 20.107 250.328 19.825 250.134 19.8467C249.96 19.8467 249.723 20.0419 249.571 20.107C249.225 20.2588 248.9 20.4324 248.554 20.5842C248.554 20.5842 248.511 20.5842 248.49 20.5842C247.927 20.0202 247.365 19.4346 246.824 18.8707C246.824 18.8707 246.824 18.8273 246.824 18.8056C246.997 18.4802 247.17 18.1332 247.343 17.8078C247.408 17.656 247.603 17.4174 247.624 17.2439C247.646 17.027 247.365 16.7233 247.257 16.5064C247.148 16.2895 247.019 15.8991 246.824 15.8123C246.673 15.7472 246.37 15.7689 246.197 15.7689C245.829 15.7472 245.44 15.7039 245.072 15.6822C245.05 15.6822 245.029 15.6822 245.029 15.6388C244.834 14.8579 244.639 14.0771 244.445 13.3179C244.445 13.2962 244.445 13.2745 244.466 13.2528C244.985 12.9058 245.504 12.5804 246.024 12.2334H246.089C245.916 11.8647 245.98 11.4525 245.98 11.0404C245.98 10.6066 245.98 10.65 245.656 10.4114C245.267 10.1511 244.877 9.89083 244.509 9.60885C244.509 9.60885 244.488 9.56548 244.488 9.54379C244.704 8.76293 244.921 8.00377 245.137 7.22291C245.137 7.20122 245.158 7.17952 245.18 7.17952C245.548 7.17952 245.937 7.13614 246.305 7.11445C246.478 7.11445 246.781 7.15784 246.932 7.07108C247.127 6.98432 247.257 6.59389 247.365 6.37699C247.495 6.16008 247.776 5.85641 247.754 5.6612C247.754 5.48768 247.559 5.24908 247.473 5.09724C247.321 4.7502 247.148 4.42484 246.997 4.07779C246.975 4.01272 247.062 3.96935 247.084 4.03442C247.3 4.48992 247.732 5.07556 247.819 5.57444C247.906 6.09501 247.321 6.65896 247.062 7.15784C247.062 7.15784 247.04 7.17952 247.019 7.17952C246.629 7.17952 245.418 7.07107 245.202 7.26629C245.072 7.37474 245.029 7.85192 244.985 8.02545C244.877 8.41587 244.682 8.84968 244.639 9.2618C244.596 9.60885 244.531 9.41364 244.769 9.67392C245.05 9.93421 245.44 10.1294 245.742 10.3463C246.348 10.7801 246.024 11.4959 246.045 12.2334C246.045 12.2768 245.98 12.2985 245.959 12.2551C246.024 12.4069 244.553 13.101 244.531 13.3396C244.488 13.665 244.769 14.2506 244.834 14.576C244.877 14.7278 244.985 15.4436 245.05 15.5086C245.461 15.834 246.435 15.4002 246.91 15.6605C247.019 15.7256 247.733 16.9619 247.711 17.092C247.711 17.2439 247.559 17.4174 247.495 17.5475C247.343 17.8295 246.91 18.3935 246.91 18.7188C246.91 18.8707 247.235 19.1526 247.43 19.3262C247.689 19.6081 248.035 20.107 248.381 20.3022C248.663 20.4541 248.641 20.389 249.052 20.1938C249.312 20.0636 249.852 19.6732 250.134 19.6732C250.393 19.6732 250.782 20.0419 251.02 20.1938C251.215 20.3022 251.496 20.389 251.604 20.5625C251.756 20.8228 251.648 21.5603 251.669 21.8422C251.691 22.3411 251.604 22.276 252.015 22.4279C252.513 22.6014 253.032 22.7099 253.529 22.8617C254.005 22.9918 253.919 22.9918 254.222 22.558C254.46 22.1893 254.719 21.8423 254.957 21.4735C254.957 21.4735 254.979 21.4518 255 21.4518C255.39 21.4735 256.341 21.3 256.644 21.4735C256.817 21.582 257.012 22.0158 257.12 22.1893C257.228 22.3628 257.553 22.9918 257.683 23.0135C257.986 23.0786 258.678 22.7532 258.98 22.6882C259.154 22.6448 259.846 22.5363 259.911 22.4713C260.084 22.2544 259.997 21.4518 260.019 21.1915C260.019 21.0397 259.997 20.736 260.084 20.6059C260.192 20.4541 261.36 19.8033 261.533 19.8033C262.052 19.8033 262.766 20.6927 263.199 20.6059C263.436 20.5625 264.821 19.196 264.842 19.0225C264.907 18.5019 264.021 17.8729 264.064 17.3306C264.064 17.1571 264.778 16.0075 264.907 15.9208C265.08 15.7906 265.643 15.8774 265.859 15.8557C266.248 15.834 266.616 15.8991 266.789 15.6605C267.049 15.2917 267.092 14.5543 267.222 14.1205C267.373 13.5999 267.481 13.6216 267.027 13.3179C266.876 13.2095 265.881 12.5804 265.946 12.5154C265.924 12.5587 265.837 12.5371 265.859 12.4937C265.902 12.1033 265.729 11.1706 265.902 10.8452C265.967 10.7368 266.27 10.5849 266.378 10.5415C266.594 10.4114 267.373 10.0644 267.46 9.84745C267.481 9.78238 267.287 9.24011 267.265 9.10997C267.179 8.71954 267.135 8.06883 266.919 7.74348C266.789 7.52657 266.746 7.59164 266.378 7.56995C266.054 7.54826 265.405 7.63502 265.124 7.48319C264.907 7.37473 264.864 7.11445 264.734 6.87586C264.626 6.65895 264.215 6.20346 264.237 5.98656C264.237 5.70458 264.626 5.2274 264.756 4.9888C264.864 4.79359 265.059 4.44653 265.037 4.33808C264.972 4.0778 264.302 3.60061 264.129 3.40539C263.999 3.27525 263.631 2.75468 263.436 2.7113C263.328 2.68961 262.636 3.10173 262.463 3.18849C262.29 3.27526 261.987 3.49216 261.792 3.51385C261.468 3.51385 260.689 2.84144 260.365 2.68961C260.365 2.68961 260.343 2.66792 260.343 2.64623C260.322 2.16904 260.43 1.43157 260.257 0.997757C260.127 0.65071 259.586 0.629013 259.132 0.49887C258.678 0.368728 258.18 0.108455 257.921 0.32536C257.726 0.498883 257.142 1.69185 256.969 1.60509C257.012 1.60509 257.012 1.71354 256.969 1.71354C256.428 1.67016 255.887 1.67016 255.325 1.71354C255.282 1.71354 255.26 1.64847 255.303 1.62678C255.173 1.69185 254.568 0.477192 254.395 0.32536C254.114 0.086765 253.616 0.325354 253.162 0.455497C252.708 0.563949 252.145 0.585642 252.015 0.932688C251.842 1.40988 252.124 2.12567 251.886 2.58116C251.821 2.71131 250.566 3.42708 250.415 3.40539C250.047 3.40539 249.485 2.9282 249.138 2.75468C248.619 2.49439 248.641 2.68962 248.208 3.12343C247.841 3.49216 247.451 3.86089 247.084 4.22962C247.04 4.27301 246.975 4.20794 247.019 4.16456L246.954 4.07779Z" fill="#66C9C9"/>
<path d="M250.653 16.745C252.838 18.914 256.147 19.6081 258.981 18.3067C261.728 17.0487 263.437 14.1638 263.264 11.1488C263.069 8.02543 260.863 5.31413 257.878 4.48989C254.893 3.66566 251.648 4.85863 249.874 7.41809C247.863 10.3246 248.295 14.2289 250.653 16.7667C250.696 16.81 250.631 16.8751 250.588 16.8317C248.49 14.5759 247.863 11.279 249.16 8.43755C250.502 5.53103 253.66 3.79579 256.818 4.16453C259.846 4.53327 262.42 6.81077 263.156 9.78236C263.913 12.8407 262.636 16.1159 259.997 17.8512C257.012 19.825 253.076 19.3044 250.566 16.8101C250.523 16.7667 250.588 16.7016 250.631 16.745H250.653Z" fill="#66C9C9"/>
</g>
<path opacity="0.41" d="M216.822 104.765H232.461V62.5341H216.822V104.765Z" fill="#66C9C9"/>
<path opacity="0.41" d="M185.544 104.765H201.183V42.3837H185.544V104.765Z" fill="#66C9C9"/>
<path opacity="0.41" d="M154.266 104.765H169.905V62.5341H154.266V104.765Z" fill="#66C9C9"/>
<path opacity="0.41" d="M123.009 104.765H138.648V30.8661H123.009L123.009 104.765Z" fill="#66C9C9"/>
<path opacity="0.41" d="M91.7313 104.786H107.37L107.37 4.64101H91.7313L91.7313 104.786Z" fill="#66C9C9"/>
<path opacity="0.41" d="M357.877 71.9885C362.632 71.9885 366.486 68.1235 366.486 63.3557C366.486 58.5879 362.632 54.7229 357.877 54.7229C353.122 54.7229 349.268 58.5879 349.268 63.3557C349.268 68.1235 353.122 71.9885 357.877 71.9885Z" fill="#66C9C9"/>
<path opacity="0.41" d="M357.877 98.8653C362.632 98.8653 366.486 95.0002 366.486 90.2325C366.486 85.4647 362.632 81.5997 357.877 81.5997C353.122 81.5997 349.268 85.4647 349.268 90.2325C349.268 95.0002 353.122 98.8653 357.877 98.8653Z" fill="#66C9C9"/>
<path opacity="0.41" d="M357.877 125.74C362.632 125.74 366.486 121.875 366.486 117.107C366.486 112.34 362.632 108.475 357.877 108.475C353.122 108.475 349.268 112.34 349.268 117.107C349.268 121.875 353.122 125.74 357.877 125.74Z" fill="#66C9C9"/>
<path opacity="0.41" d="M357.877 152.613C362.632 152.613 366.486 148.748 366.486 143.981C366.486 139.213 362.632 135.348 357.877 135.348C353.122 135.348 349.268 139.213 349.268 143.981C349.268 148.748 353.122 152.613 357.877 152.613Z" fill="#66C9C9"/>
<g opacity="0.41">
<path d="M336.484 64.4646H305.228C303.8 64.4646 303.8 62.2522 305.228 62.2522H336.484C337.912 62.2522 337.912 64.4646 336.484 64.4646Z" fill="#66C9C9"/>
</g>
<g opacity="0.41">
<path d="M336.484 91.3377H294.369C292.941 91.3377 292.941 89.1252 294.369 89.1252H336.484C337.912 89.1252 337.912 91.3377 336.484 91.3377Z" fill="#66C9C9"/>
</g>
<g opacity="0.41">
<path d="M336.484 118.213H305.228C303.8 118.213 303.8 116 305.228 116H336.484C337.912 116 337.912 118.213 336.484 118.213Z" fill="#66C9C9"/>
</g>
<g opacity="0.41">
<path d="M336.484 145.088H294.369C292.941 145.088 292.941 142.875 294.369 142.875H336.484C337.912 142.875 337.912 145.088 336.484 145.088Z" fill="#66C9C9"/>
</g>
<path d="M447.169 288.245C426.274 288.31 405.357 288.375 384.461 288.44C381.433 288.44 378.426 288.44 375.398 288.462C374.662 288.462 374.122 287.963 373.884 287.312C367.611 269.96 361.359 252.607 355.086 235.255L352.426 227.902C351.734 226.015 354.762 225.191 355.433 227.078C361.706 244.43 367.957 261.782 374.23 279.135L376.89 286.488L375.376 285.338C396.272 285.273 417.189 285.208 438.084 285.143C441.112 285.143 444.119 285.143 447.147 285.121C449.159 285.121 449.159 288.245 447.147 288.245H447.169Z" fill="#283243"/>
<path d="M468.988 443.846C468.641 449.941 469.896 456.145 472.6 461.611C465.959 463.693 459.081 464.995 452.137 465.472C451.055 465.537 449.65 465.385 449.347 464.322C455.209 459.442 457.177 451.178 456.874 443.543" fill="#F4A88E"/>
<path d="M470.545 456.271C475.066 459.915 475.477 466.552 475.325 472.343C475.325 472.842 475.282 473.428 474.893 473.753C474.59 474.035 474.136 474.079 473.725 474.1C470.761 474.317 467.798 474.556 464.834 474.773C464.012 474.838 463.147 474.903 462.39 474.556C461.546 474.187 460.941 473.363 460.076 473.081C459.21 472.799 458.302 473.124 457.437 473.406C447.054 476.942 435.741 477.701 424.969 475.619C422.87 467.311 446.924 468.482 453.997 458.353C455.49 456.206 465.094 459.047 470.523 456.249" fill="#E51010"/>
<path d="M451.921 216.05C444.09 231.471 444.134 249.93 443.398 267.239C442.663 284.526 444.372 301.814 446.037 319.057C449.996 360.096 453.673 401.242 453.413 442.476C453.413 443.495 453.5 445.339 453.824 445.86C454.149 446.38 455.814 446.293 456.788 446.315C467.798 446.445 470.393 447.617 471.215 446.011C471.713 445.014 472.167 439.916 472.059 437.791C469.074 373.804 484.172 310.034 481.382 246.026C480.711 230.842 479.067 215.746 477.402 200.649" fill="#190247"/>
<path d="M503.186 438.227C504.808 444.127 507.988 449.571 512.292 453.888C506.668 457.987 500.569 461.436 494.144 464.126C493.149 464.538 491.765 464.841 491.138 463.93C495.118 457.423 494.339 448.964 491.613 441.828" fill="#F4A88E"/>
<path d="M508.659 449.482C514.088 451.478 516.619 457.616 518.349 463.169C518.501 463.646 518.652 464.21 518.392 464.644C518.198 465.013 517.787 465.186 517.397 465.36C514.672 466.531 511.925 467.702 509.199 468.874C508.442 469.199 507.642 469.524 506.82 469.459C505.911 469.372 505.068 468.787 504.159 468.809C503.251 468.809 502.494 469.416 501.78 469.958C493.063 476.639 482.615 481.02 471.756 482.517C467.106 475.316 490.251 468.678 493.712 456.814C494.447 454.298 504.462 453.907 508.702 449.504" fill="#E51010"/>
<path d="M508.94 215.074C516.316 231.645 518.025 246.395 517.051 264.506C516.164 281.034 509.48 297.823 503.575 313.288C499.617 323.613 495.68 333.959 491.722 344.283C490.359 347.841 488.996 351.441 488.607 355.237C488.152 359.64 489.083 364.065 489.991 368.403C494.88 391.655 499.79 414.907 504.678 438.181C504.787 438.702 504.96 439.483 505.111 440.177C505.349 441.24 504.743 442.281 503.727 442.628C503.143 442.823 502.537 442.975 502.104 443.148L493.301 446.792C492.241 447.226 491.029 446.749 490.553 445.708C482.701 427.965 476.602 409.507 470.523 391.07C468.706 385.56 466.889 380.029 465.072 374.52C462.628 367.08 460.162 359.575 459.275 351.81C458.151 341.963 459.6 332.05 460.854 322.224C465.7 283.984 467.452 245.375 466.089 206.853" fill="#23005C"/>
<path d="M484.864 110.158C481.663 116.904 485.492 126.014 492.522 128.443C493.538 128.79 494.901 129.593 494.425 130.569C494.231 130.959 493.82 131.154 493.452 131.349C489.429 133.497 488.152 138.507 486.206 142.65C483.134 149.157 477.488 154.406 470.783 156.944C470.307 157.118 469.766 157.291 469.29 157.096C468.858 156.901 468.62 156.445 468.403 156.011C465.115 149.331 461.071 143.756 456.355 137.965C460.335 138.377 464.445 135.731 466.738 132.456C469.009 129.159 469.355 124.625 467.581 121.025" fill="#E88970"/>
<path d="M422.286 236.374C422.286 236.374 415.581 247.783 414.499 249.041C413.418 250.299 408.572 254.398 405.76 259.756C402.948 265.114 397 275.351 397 275.351C397 275.351 397.541 277.933 401.456 273.942C405.371 269.95 407.404 266.784 410.281 265.005C415.235 261.925 413.288 266.35 411.558 267.326C409.827 268.302 408.205 269.82 407.469 271.274C406.734 272.727 411.904 270.883 413.742 270.298C415.581 269.712 420.015 266.892 421.335 264.441C422.935 261.47 424.969 260.428 424.45 253.444C424.103 248.932 434.746 237.523 434.746 237.523" fill="#F4A88E"/>
<path d="M492.089 255.701L489.667 272.467L503.662 270.32L505.306 251.992" fill="#F4A88E"/>
<path d="M490.575 127.552C487.914 134.016 481.923 137.638 474.958 137.855C472.016 137.942 468.901 137.226 466.781 135.165C466.37 134.753 465.938 134.276 465.354 134.211C464.921 134.168 464.488 134.363 464.099 134.58C462.174 135.556 460.465 136.055 458.54 137.031C457.869 137.378 454.581 137.443 454.084 137.877C453.283 138.549 455.62 140.675 455.468 141.716C454.711 146.596 453.976 151.477 453.219 156.357C452.375 161.866 451.531 167.441 451.942 173.015C452.483 180.13 453.132 187.895 454.625 194.879C456.55 203.924 456.896 208.414 455.122 217.48C471.107 224.92 487.33 222.881 502.58 221.84C499.876 199.369 506.041 176.919 510.367 154.708C511.189 150.457 515.299 144.796 514.023 140.675C511.492 132.541 498.622 130.285 490.553 127.595" fill="#FE1810"/>
<path d="M499.379 152.649C498.708 155.946 496.415 168.331 494.512 172.257C493.128 175.142 490.38 178.916 487.417 180.109C484.389 181.324 481.036 182.039 478.592 184.165C476.147 186.291 475.152 190.651 477.683 192.711C478.332 193.232 479.132 193.557 479.695 194.143C481.296 195.791 480.452 198.546 479.197 200.476C478.7 201.235 478.137 201.995 477.986 202.906C477.878 203.578 477.986 204.272 478.224 204.923C479.587 208.892 483.913 210.909 487.893 212.233C491.44 213.404 495.053 214.358 498.708 215.074" fill="#F20F0F"/>
<path d="M474.222 137.573C471.237 165.64 471.324 193.903 474.482 221.927C474.547 222.513 473.617 222.491 473.552 221.927C470.394 193.881 470.307 165.619 473.292 137.573C473.357 137.009 474.265 136.987 474.222 137.573Z" fill="#E51010"/>
<path d="M498.643 130.006C495.42 136.535 491.44 143.519 487.482 149.614C487.179 150.092 486.79 150.612 486.227 150.656C485.687 150.699 485.232 150.265 484.865 149.875C481.187 146.035 477.51 142.218 473.833 138.379C470.458 143.324 466.478 147.836 462.022 151.827C460.573 147.424 457.653 141.806 456.182 137.403C457.977 136.73 460.076 135.906 461.287 134.54C461.698 134.084 462.13 133.607 462.671 133.303C464.51 132.284 466.695 133.585 468.555 134.561C472.557 136.644 477.38 137.294 481.685 135.928C485.989 134.561 488.563 131.698 490.575 127.534C493.236 128.314 496.264 128.596 498.643 129.985" fill="#E51010"/>
<path d="M454.776 193.362C456.096 195.987 458.367 198.112 461.049 199.24C462.606 199.891 464.315 200.238 465.635 201.279C467.517 202.776 468.144 205.639 467.062 207.786C466.781 208.372 466.37 208.892 466.176 209.521C465.418 212.037 468.382 214.51 467.755 217.048C467.408 218.501 465.959 219.434 464.553 219.868C460.443 221.126 455.598 219.043 453.651 215.226" fill="#F20F0F"/>
<path d="M456.29 139.678C456.528 138.528 455.555 137.487 454.408 137.704C451.423 138.268 446.491 139.852 444.653 144.363C441.927 151 443.679 187.831 436.282 202.862C430.009 215.638 421.746 232.73 419.41 237.545C419.042 238.304 419.323 239.194 420.015 239.649L431.155 246.568C431.847 247.002 432.778 246.85 433.275 246.2C437.233 241.211 453.046 220.735 455.641 209.152C460.638 186.833 448.395 176.378 456.269 139.7L456.29 139.678Z" fill="#E51010"/>
<path d="M507.966 134.429C506.171 134.104 504.44 135.275 503.208 136.62C497.064 143.322 498.384 153.69 498.405 162.8C498.405 170.695 497.129 178.504 495.983 186.312C492.695 208.719 490.424 231.277 489.191 253.878C489.147 254.724 489.126 255.657 489.667 256.307C490.078 256.806 490.705 257.023 491.332 257.197C495.55 258.433 500.049 258.693 504.376 257.956C505.198 257.826 506.063 257.631 506.69 257.088C507.555 256.351 507.837 255.18 508.074 254.073C513.331 228.739 515.753 202.906 518.198 177.159C519.128 167.29 520.036 157.247 518.025 147.552C516.921 142.303 514.434 136.663 509.416 134.754" fill="#E51010"/>
<path d="M467.582 78.1199C463.364 78.0548 459.492 81.0047 457.523 84.7571C455.555 88.5096 455.252 92.9344 455.62 97.1424C456.42 106.209 460.335 114.972 466.522 121.631C466.976 122.13 467.495 122.629 468.144 122.824C469.161 123.106 470.221 122.542 471.129 122.021C478.31 117.77 487.071 108.291 491.916 102.435C495.68 97.9015 494.793 95.624 493.063 89.9845" fill="#F4A88E"/>
<path d="M470.026 78.033C471.972 79.92 469.636 83.1953 467.127 84.2364C464.618 85.2776 461.46 85.8415 460.378 88.3142C459.708 89.8759 460.14 91.6546 460.292 93.3464C460.551 96.4481 459.773 99.6366 458.085 102.261C457.761 102.782 457.328 103.302 456.723 103.411C456.074 103.519 455.468 103.107 454.927 102.717C451.142 99.8969 447.248 96.9904 444.696 92.9994C442.143 89.0083 441.17 83.6508 443.485 79.5513C444.544 77.6859 446.189 76.1893 447.248 74.3239C448.957 71.3089 448.957 67.665 450.039 64.368C451.12 61.0711 454.213 57.8392 457.545 58.7502C459.189 59.2057 460.443 60.5722 462.066 61.1144C464.856 62.0905 467.798 60.442 470.653 59.6612C474.893 58.4899 479.651 59.2708 483.285 61.7652C484.735 62.7629 486.054 64.0643 486.66 65.7128C487.136 67.0142 487.157 68.4458 487.612 69.7472C488.758 73.0008 492.176 74.6927 495.074 76.5147C497.973 78.3366 500.871 81.4601 499.963 84.7787C499.509 86.4489 498.124 87.772 497.778 89.4855C497.367 91.5678 498.578 93.6067 498.773 95.7107C499.033 98.5087 497.41 101.198 495.247 102.977C493.084 104.756 490.402 105.753 487.785 106.729C487.568 104.842 489.472 103.519 490.791 102.174C492.608 100.352 493.625 97.4242 492.435 95.1467C491.245 92.8692 487.395 92.327 486.184 94.6045C485.167 96.5132 486.184 99.5499 484.302 100.591C481.987 98.9642 480.603 96.0794 480.733 93.2597C480.776 92.5439 480.906 91.8064 480.69 91.1123C480.3 89.8326 478.894 89.2035 477.748 88.5528C474.33 86.6224 471.518 83.6942 470.696 79.855" fill="#283243"/>
<path d="M493.344 77.6297C497.346 76.2415 499.811 72.2721 501.845 68.5414C503.965 64.6588 506.041 60.581 506.301 56.1562C506.56 51.7313 504.549 46.8727 500.482 45.1374C499.119 44.5518 497.454 44.2481 496.632 42.9901C496.091 42.1441 496.069 41.0596 495.745 40.1052C494.836 37.3939 491.7 36.2444 488.974 35.4635C487.46 35.0297 485.687 34.6393 484.41 35.572C481.728 37.5458 483.913 43.3371 480.733 44.3349C479.176 44.8337 477.661 43.5323 476.061 43.1419C472.708 42.3177 469.723 45.6363 468.641 48.9333C466.824 54.486 468.036 60.928 471.756 65.418" fill="#283243"/>
<path d="M454.971 87.8156L452.202 95.6242C451.358 97.9885 450.515 100.526 451.142 102.956C451.618 104.778 452.851 106.274 453.781 107.901C454.711 109.528 455.382 111.545 454.581 113.237C454.17 114.126 453.392 114.799 452.764 115.579C451.683 116.902 450.969 118.508 450.731 120.199C450.407 122.672 451.056 125.145 451.402 127.618C451.748 130.09 451.64 132.823 450.061 134.754C452.743 132.52 454.516 129.244 454.884 125.774C455.165 123.279 454.798 120.525 456.29 118.508C457.069 117.445 458.259 116.751 458.972 115.644C460.703 112.911 458.756 109.484 457.826 106.383C456.766 102.825 457.177 98.8561 458.972 95.6025" fill="#283243"/>
<path d="M471.15 93.0213C473.768 91.6548 477.445 90.2883 480.257 91.7415C480.884 92.0669 480.322 93.0213 479.695 92.6959C477.294 91.4595 473.919 92.8043 471.691 93.9756C471.064 94.301 470.502 93.3466 471.129 93.0213H471.15Z" fill="#283243"/>
<path d="M462.412 94.9522C460.011 94.2148 457.047 93.6291 454.646 94.5618C453.976 94.8221 453.694 93.7592 454.343 93.4989C456.917 92.5012 460.119 93.0868 462.693 93.8894C463.363 94.1063 463.082 95.1691 462.39 94.9522H462.412Z" fill="#283243"/>
<path d="M474.093 99.2255C474.607 99.2255 475.023 98.6911 475.023 98.032C475.023 97.3729 474.607 96.8386 474.093 96.8386C473.579 96.8386 473.162 97.3729 473.162 98.032C473.162 98.6911 473.579 99.2255 474.093 99.2255Z" fill="#283243"/>
<path d="M460.336 99.8772C460.849 99.8772 461.266 99.3429 461.266 98.6838C461.266 98.0247 460.849 97.4903 460.336 97.4903C459.822 97.4903 459.405 98.0247 459.405 98.6838C459.405 99.3429 459.822 99.8772 460.336 99.8772Z" fill="#283243"/>
<path d="M465.116 99.2259C465.116 99.2259 464.964 105.473 464.25 109.03H467.992" fill="#E88970"/>
<path d="M473.205 111.458L463.125 112.239C463.125 112.239 467.019 118.42 473.205 111.458Z" fill="#F5F6F8"/>
<path d="M485.686 86.9059C482.961 88.1856 482.377 91.9597 483.307 94.8228C484.237 97.686 486.227 100.094 487.417 102.87C489.018 106.666 488.974 111.112 487.309 114.865C486.4 116.904 485.059 118.769 484.627 120.938C484.064 123.91 485.34 126.881 485.795 129.853C486.249 132.824 485.34 136.599 482.442 137.423C484.843 131.805 477.878 126.014 478.765 119.962C479.305 116.318 482.615 113.563 483.177 109.919C483.891 105.256 479.933 101.222 478.981 96.6015C477.575 89.7907 482.766 82.3725 479.803 76.0823" fill="#283243"/>
<g opacity="0.41">
<path d="M336.246 386.066C337.025 386.066 337.695 386.608 338.193 387.194C340.01 389.298 340.442 392.205 340.897 394.938C341.351 397.671 342.021 400.599 344.12 402.421C346.218 404.243 350.155 404.026 351.107 401.423C351.885 399.319 350.414 397.128 349.246 395.22C347.992 393.159 347.04 390.925 346.391 388.604C346.088 387.476 346.218 385.806 347.386 385.762C348.208 385.719 348.727 386.63 349.03 387.411C350.847 391.901 353.01 396.369 356.428 399.775C357.682 401.011 359.499 402.139 361.078 401.38C362.268 400.794 362.765 399.276 362.657 397.952C362.484 395.718 361.1 393.788 359.499 392.226C357.899 390.665 356.06 389.363 354.611 387.671C353.508 386.37 352.642 384.873 352.08 383.268C351.842 382.552 351.669 381.706 352.101 381.099C352.621 380.362 353.789 380.405 354.546 380.904C355.303 381.403 355.735 382.249 356.211 383.008C357.942 385.828 360.408 388.17 363.285 389.775C365.491 391.012 368.779 391.532 370.098 389.363C371.007 387.866 370.336 385.828 369.147 384.548C367.957 383.268 366.335 382.487 364.907 381.446C363.479 380.427 362.246 379.147 361.273 377.694C360.862 377.065 360.473 376.327 360.624 375.611C360.84 374.679 361.922 374.18 362.874 374.267C363.825 374.353 364.669 374.896 365.469 375.394C367.611 376.783 369.774 378.171 371.915 379.559C373.019 380.275 374.446 380.969 375.528 380.231C376.393 379.646 376.501 378.409 376.285 377.368C375.809 375.069 374.078 373.074 371.872 372.271C370.206 371.685 368.108 371.577 367.243 370.037C366.378 368.497 367.438 366.523 368.887 365.504C370.336 364.484 372.11 364.05 373.559 363.074C375.658 361.664 376.955 359.235 377.301 356.719C377.648 354.203 377.128 351.622 376.155 349.279C375.16 346.85 373.646 344.572 371.483 343.119C369.32 341.666 366.421 341.145 364.042 342.208C361.057 343.531 359.521 346.915 359.045 350.125C358.569 353.335 358.937 356.654 358.483 359.886C358.223 361.751 356.968 364.05 355.151 363.617C353.745 363.291 353.248 361.599 352.988 360.19C352.577 357.955 352.145 355.7 351.734 353.465C351.431 351.795 350.76 349.756 349.073 349.518C347.71 349.323 346.499 350.581 346.24 351.925C345.98 353.27 346.369 354.658 346.78 355.96C347.602 358.628 348.424 361.296 349.268 363.964C349.614 365.07 349.96 366.219 349.7 367.347C349.441 368.475 348.403 369.516 347.278 369.299C346.694 369.191 346.218 368.801 345.807 368.367C342.822 365.33 341.654 360.58 337.977 358.454C337.263 358.042 336.376 357.739 335.597 358.02C334.689 358.368 334.213 359.409 334.234 360.385C334.256 361.361 334.667 362.272 335.078 363.139C335.922 364.94 336.765 366.74 337.587 368.54C338.517 370.536 339.404 373.074 338.041 374.809C337.868 375.026 337.674 375.221 337.414 375.286C336.808 375.46 336.268 374.896 335.922 374.353C334.061 371.425 333.65 367.759 331.877 364.788C330.838 363.053 328.74 361.469 326.923 362.38C325.907 362.901 325.366 364.029 324.998 365.113C323.289 369.929 323.138 375.59 325.928 379.884C327.94 383.008 334.256 382.899 336.224 386.044" fill="#66C9C9"/>
</g>
<path d="M350.112 376.893C330.06 389.474 319.59 411.316 311.198 432.616C310.96 433.201 310.03 432.941 310.268 432.356C318.768 410.795 329.346 388.758 349.636 376.047C350.176 375.722 350.652 376.568 350.133 376.893H350.112Z" fill="#51B7B4"/>
<g opacity="0.41">
<path d="M291.384 394.526C290.8 394.526 290.302 394.96 289.913 395.437C288.55 397.129 288.226 399.493 287.879 401.684C287.533 403.875 287.036 406.261 285.457 407.714C283.878 409.167 280.914 409.015 280.179 406.911C279.595 405.22 280.698 403.441 281.585 401.901C282.537 400.231 283.25 398.43 283.726 396.565C283.964 395.654 283.856 394.309 282.969 394.266C282.342 394.244 281.974 394.982 281.736 395.589C280.352 399.211 278.751 402.812 276.156 405.567C275.225 406.564 273.841 407.475 272.651 406.846C271.743 406.369 271.375 405.154 271.462 404.07C271.592 402.27 272.63 400.708 273.841 399.45C275.052 398.192 276.437 397.129 277.518 395.784C278.362 394.743 279.011 393.528 279.422 392.227C279.617 391.663 279.725 390.969 279.422 390.47C279.032 389.884 278.146 389.906 277.583 390.318C277.021 390.73 276.675 391.403 276.329 392.032C275.031 394.309 273.171 396.196 271.007 397.498C269.342 398.496 266.854 398.908 265.859 397.172C265.167 395.958 265.665 394.331 266.573 393.29C267.482 392.249 268.693 391.62 269.774 390.795C270.856 389.971 271.786 388.952 272.522 387.78C272.846 387.282 273.127 386.674 272.997 386.089C272.824 385.329 272.024 384.917 271.31 385.004C270.596 385.091 269.969 385.503 269.363 385.915C267.741 387.043 266.119 388.149 264.497 389.277C263.675 389.841 262.571 390.427 261.771 389.819C261.122 389.342 261.036 388.344 261.209 387.52C261.555 385.655 262.874 384.05 264.54 383.421C265.794 382.943 267.373 382.857 268.044 381.62C268.693 380.384 267.893 378.779 266.811 377.955C265.729 377.13 264.388 376.783 263.285 375.981C261.706 374.853 260.711 372.879 260.452 370.84C260.192 368.801 260.581 366.741 261.317 364.832C262.074 362.88 263.199 361.036 264.843 359.865C266.487 358.694 268.65 358.281 270.445 359.127C272.695 360.19 273.863 362.923 274.209 365.526C274.555 368.129 274.295 370.797 274.62 373.4C274.814 374.918 275.745 376.762 277.129 376.415C278.189 376.154 278.557 374.788 278.773 373.638C279.097 371.838 279.4 370.016 279.725 368.216C279.963 366.871 280.46 365.222 281.736 365.027C282.753 364.875 283.683 365.895 283.878 366.979C284.072 368.064 283.77 369.17 283.467 370.233C282.84 372.38 282.212 374.549 281.607 376.697C281.347 377.586 281.087 378.519 281.282 379.43C281.477 380.341 282.256 381.165 283.121 381.013C283.553 380.926 283.921 380.601 284.224 380.276C286.473 377.825 287.36 373.985 290.129 372.272C290.67 371.925 291.34 371.686 291.924 371.925C292.617 372.207 292.963 373.053 292.963 373.833C292.963 374.614 292.638 375.352 292.314 376.068C291.687 377.521 291.059 378.974 290.41 380.427C289.718 382.054 289.048 384.093 290.086 385.481C290.216 385.655 290.367 385.807 290.562 385.872C291.016 386.002 291.427 385.546 291.687 385.113C293.093 382.748 293.395 379.798 294.737 377.391C295.515 375.981 297.116 374.701 298.457 375.439C299.236 375.851 299.625 376.762 299.906 377.651C301.182 381.534 301.312 386.11 299.214 389.581C297.7 392.097 292.919 392.01 291.449 394.548" fill="#66C9C9"/>
</g>
<path d="M280.914 387.131C296.034 397.282 303.93 414.917 310.267 432.117C310.441 432.573 311.154 432.377 310.981 431.9C304.579 414.483 296.597 396.718 281.304 386.459C280.893 386.198 280.525 386.871 280.936 387.131H280.914Z" fill="#51B7B4"/>
<g opacity="0.41">
<path d="M305.184 372.652C309.272 372.305 315.632 375.125 318.963 376.839C323.917 379.376 330.471 378.27 334.321 374.257C335.338 373.195 336.203 371.85 336.203 370.375C336.203 369.637 335.965 368.922 335.64 368.249C333.888 364.909 329.584 363.824 325.82 363.998C322.056 364.171 318.293 365.212 314.572 364.605C313.426 364.41 312.258 364.041 311.501 363.174C310.743 362.306 310.57 360.831 311.392 360.028C311.825 359.595 312.452 359.421 313.058 359.291C315.848 358.727 318.725 358.944 321.537 358.554C323.938 358.206 326.274 357.404 328.373 356.189C329.303 355.647 330.211 355.018 330.709 354.064C331.682 352.155 330.471 349.66 328.567 348.684C326.664 347.708 324.349 347.969 322.316 348.684C320.283 349.4 318.444 350.506 316.432 351.266C314.421 352.025 312.149 352.393 310.181 351.591C309.683 351.396 309.143 351.005 309.164 350.463C309.164 350.246 309.272 350.029 309.381 349.856C310.678 347.643 313.166 346.494 315.502 345.496C317.838 344.498 320.348 343.414 321.732 341.266C323.116 339.119 322.662 335.605 320.239 334.802C318.531 334.239 316.67 335.236 315.372 336.494C314.075 337.752 313.058 339.336 311.544 340.334C310.03 341.331 307.758 341.57 306.59 340.182C308.753 338.013 310.83 335.779 312.82 333.458C314.031 332.048 315.243 330.595 315.87 328.859C316.995 325.844 316.216 322.331 314.291 319.771C312.366 317.212 309.424 315.52 306.352 314.674C302.048 313.502 296.683 314.24 294.369 318.079C292.509 321.181 293.266 325.172 294.564 328.534C295.861 331.896 297.678 335.215 297.765 338.815C297.765 339.162 297.765 339.531 297.57 339.835C296.986 340.789 295.494 340.138 294.65 339.401C292.552 337.601 290.454 335.8 288.334 333.978C286.495 332.395 283.856 330.768 281.888 332.135C280.85 332.872 280.417 334.239 280.439 335.497C280.482 338.859 282.969 341.7 285.716 343.652C287.555 344.954 289.675 346.147 290.627 348.207C290.757 348.511 290.865 348.836 290.8 349.162C290.519 350.246 288.896 349.725 287.966 349.075C285.587 347.405 282.731 346.429 279.833 346.277C278.319 346.19 276.718 346.363 275.507 347.296C274.295 348.229 273.69 350.029 274.512 351.309C274.901 351.916 275.55 352.307 276.177 352.632C280.612 354.801 286.366 354.346 289.891 357.816C290.281 358.206 290.67 358.727 290.497 359.248C290.389 359.573 290.108 359.79 289.826 359.963C286.474 362.154 281.801 361.221 278.405 363.347C275.377 365.234 274.144 369.138 274.209 372.717C274.274 375.949 275.334 379.376 277.908 381.35C279.011 382.196 280.309 382.717 281.65 383.02C285.479 383.888 292.703 384.777 296.229 383.02C301.896 380.179 303.108 377.034 305.141 372.652" fill="#66C9C9"/>
</g>
<path d="M301.68 355.702C308.58 380.082 313.015 405.829 306.158 430.751C305.985 431.358 305.054 431.098 305.228 430.49C312.041 405.742 307.607 380.19 300.75 355.962C300.577 355.355 301.507 355.095 301.68 355.702Z" fill="#51B7B4"/>
<path d="M283.121 433.765L282.775 431.813C282.537 430.49 283.553 429.275 284.894 429.275H332.763C334.105 429.275 335.121 430.49 334.883 431.813L327.853 470.899C324.154 469.294 319.504 466.995 314.377 463.806C305.249 458.102 293.114 448.558 283.121 433.765Z" fill="#D2DAE1"/>
<path d="M314.378 463.806C319.483 466.995 324.155 469.294 327.854 470.899L327.81 471.094L327.053 475.281C326.859 476.3 325.993 477.059 324.955 477.059L292.877 477.255C291.838 477.255 290.93 476.517 290.735 475.476L283.208 434.242L283.121 433.765C293.115 448.558 305.249 458.102 314.378 463.806Z" fill="#C0CED8"/>
<g opacity="0.19">
<path d="M250.752 258.4C254.884 250.049 251.553 222.177 244.263 205.302C242.424 201.072 240.326 196.929 237.471 193.307C234.075 188.991 229.727 185.52 225.228 182.353C223.368 181.03 221.399 179.751 219.171 179.23C216.943 178.709 214.391 179.078 212.812 180.727C210.605 183.026 211.06 186.757 211.99 189.793C214.304 197.407 218.609 204.282 221.248 211.809C223.389 217.947 224.384 224.476 226.764 230.528C230.982 241.308 243.333 257.402 250.752 258.378" fill="#FE1810"/>
</g>
<path d="M250.666 258.424C249.303 253.674 247.94 248.902 246.513 244.174C245.085 239.445 243.592 234.695 241.992 230.01C240.391 225.325 238.682 220.705 236.8 216.128C234.918 211.551 232.842 207.04 230.571 202.637C228.299 198.233 225.834 194.025 223.086 189.948C222.74 189.449 222.394 188.928 222.048 188.429C221.983 188.343 222.135 188.256 222.178 188.343C224.99 192.399 227.542 196.628 229.878 200.988C232.215 205.348 234.313 209.816 236.238 214.371C238.141 218.883 239.872 223.459 241.494 228.079C243.117 232.699 244.652 237.536 246.102 242.287C247.551 247.037 248.935 251.83 250.32 256.624C250.493 257.21 250.666 257.795 250.817 258.381C250.839 258.489 250.687 258.533 250.666 258.424Z" fill="#FE1810"/>
<path d="M247.464 247.491C247.032 246.298 246.102 245.452 245.215 244.585C244.22 243.63 243.225 242.676 242.208 241.721C240.196 239.791 238.163 237.861 236.151 235.93C235.005 234.824 233.837 233.718 232.69 232.611C232.626 232.546 232.734 232.416 232.799 232.503C236.952 236.472 241.105 240.463 245.258 244.433C246.188 245.322 247.161 246.211 247.616 247.448C247.659 247.535 247.508 247.578 247.464 247.491Z" fill="#FE1810"/>
<path d="M245.086 239.444C245.844 233.826 245.822 228.078 244.978 222.46C244.74 220.898 244.436 219.336 244.09 217.775C244.068 217.666 244.22 217.623 244.241 217.731C245.541 223.284 246.039 229.01 245.714 234.715C245.627 236.32 245.476 237.903 245.259 239.487C245.259 239.595 245.086 239.552 245.108 239.444H245.086Z" fill="#FE1810"/>
<path d="M240.261 225.084C236.952 220.724 232.95 216.907 228.451 213.827C228.364 213.762 228.451 213.631 228.537 213.696C233.08 216.798 237.081 220.616 240.413 225.019C240.478 225.106 240.326 225.171 240.283 225.106L240.261 225.084Z" fill="#FE1810"/>
<path d="M234.053 209.858C233.924 203.915 232.95 197.993 231.198 192.31C231.176 192.202 231.328 192.159 231.349 192.267C233.123 197.95 234.075 203.893 234.205 209.858C234.205 209.966 234.053 209.966 234.053 209.858Z" fill="#FE1810"/>
<path d="M228.862 199.511C226.764 197.689 224.449 196.128 222.005 194.826C221.918 194.783 222.005 194.631 222.091 194.696C224.557 195.998 226.872 197.581 228.97 199.403C229.056 199.468 228.927 199.576 228.862 199.511Z" fill="#FE1810"/>
<g opacity="0.19">
<path d="M252.223 258.399C256.16 260.286 261.222 255.862 262.519 253.346C268.035 242.587 266.348 229.486 270.415 218.099C273.789 208.685 281.057 200.529 281.814 190.552C282.009 187.971 281.749 185.368 281.36 182.808C280.798 179.164 279.716 175.195 276.623 173.199C274.2 171.638 270.977 171.703 268.316 172.809C265.656 173.915 263.45 175.889 261.503 178.036C252.786 187.602 248.394 200.421 246.513 213.218C244.198 228.9 243.636 246.665 252.245 258.399" fill="#FE1810"/>
</g>
<path d="M252.158 258.379C254.083 253.651 255.165 248.64 255.792 243.586C256.42 238.533 256.593 233.37 256.83 228.251C257.068 223.132 257.328 218.078 258.107 213.025C258.864 208.079 260.162 203.199 261.979 198.535C263.796 193.872 266.045 189.534 268.771 185.434C269.117 184.914 269.485 184.393 269.831 183.873C269.896 183.786 270.025 183.873 269.96 183.959C267.084 188.059 264.639 192.462 262.714 197.082C260.811 201.681 259.405 206.474 258.518 211.376C257.631 216.278 257.285 221.592 257.047 226.733C256.809 231.874 256.657 236.927 256.117 242.025C255.576 247.122 254.689 251.937 253.002 256.622C252.785 257.23 252.548 257.815 252.31 258.423C252.266 258.509 252.115 258.466 252.158 258.379Z" fill="#FE1810"/>
<path d="M271.907 193.524C267.949 195.628 264.315 198.274 261.113 201.398C261.048 201.463 260.919 201.355 261.005 201.289C264.228 198.166 267.862 195.498 271.821 193.372C271.907 193.329 271.994 193.459 271.907 193.503V193.524Z" fill="#FE1810"/>
<path d="M265.18 213.957C262 216.755 259.296 220.095 257.241 223.826C257.198 223.913 257.047 223.826 257.112 223.739C259.188 220.008 261.87 216.668 265.072 213.848C265.158 213.783 265.266 213.892 265.18 213.957Z" fill="#FE1810"/>
<path d="M261.849 231.918C259.34 234.434 257.415 237.47 256.225 240.811C256.182 240.898 256.03 240.876 256.074 240.767C257.285 237.405 259.232 234.347 261.741 231.809C261.806 231.744 261.935 231.853 261.849 231.918Z" fill="#FE1810"/>
<path d="M262.975 184.458C262.325 188.883 262.13 193.351 262.39 197.819C262.39 197.928 262.238 197.928 262.238 197.819C262 193.351 262.195 188.861 262.845 184.415C262.845 184.306 263.018 184.35 262.996 184.458H262.975Z" fill="#FE1810"/>
<path d="M255.619 197.147C255.706 202.873 256.549 208.578 258.085 214.087C258.107 214.196 257.955 214.239 257.934 214.13C256.398 208.599 255.554 202.873 255.468 197.147C255.468 197.038 255.619 197.038 255.619 197.147Z" fill="#FE1810"/>
<path d="M253.434 222.265C253.954 225.974 255.078 229.553 256.744 232.915C256.787 233.001 256.658 233.088 256.614 233.001C254.949 229.639 253.824 226.039 253.305 222.33C253.305 222.221 253.434 222.178 253.456 222.286L253.434 222.265Z" fill="#FE1810"/>
<path d="M253.175 240.137L255.208 248.184C255.208 248.184 255.078 248.336 255.057 248.227L253.023 240.18C253.023 240.18 253.153 240.028 253.175 240.137Z" fill="#FE1810"/>
<g opacity="0.19">
<path d="M254.386 258.938C258.15 246.986 264.163 232.931 272.751 223.821C275.995 220.394 280.214 217.379 284.929 217.465C285.967 217.487 287.027 217.682 287.957 218.181C290.683 219.678 291.267 223.452 290.51 226.467C289.731 229.569 287.914 232.302 286.14 234.948C284.605 237.225 283.09 239.503 281.555 241.78C278.44 246.444 275.26 251.172 271.064 254.881C266.867 258.59 258.193 260.846 254.386 258.938Z" fill="#FE1810"/>
</g>
<path d="M283.134 225.235C279.283 229.704 275.974 234.627 272.599 239.464C269.225 244.301 265.894 248.9 261.805 252.999C259.556 255.255 257.09 257.294 254.408 259.007C254.321 259.073 254.235 258.921 254.321 258.877C259.188 255.776 263.233 251.611 266.802 247.099C270.371 242.588 273.638 237.577 277.055 232.827C278.937 230.181 280.905 227.6 283.025 225.127C283.09 225.04 283.198 225.17 283.134 225.235Z" fill="#FE1810"/>
<path d="M276.947 225.756L275.087 235.864C275.087 235.864 274.914 235.929 274.935 235.821C275.563 232.459 276.168 229.097 276.796 225.713C276.796 225.605 276.969 225.648 276.947 225.756Z" fill="#FE1810"/>
<path d="M269.874 233.891C269.16 237.73 268.598 241.613 268.208 245.496C268.208 245.604 268.035 245.604 268.057 245.496C268.468 241.591 269.03 237.709 269.744 233.848C269.744 233.739 269.917 233.783 269.895 233.891H269.874Z" fill="#FE1810"/>
<path d="M281.338 236.536C277.813 238.098 274.395 239.877 271.064 241.807C270.977 241.851 270.891 241.72 270.977 241.677C274.308 239.747 277.748 237.968 281.252 236.406C281.338 236.363 281.425 236.493 281.338 236.536Z" fill="#FE1810"/>
<path d="M272.599 249.008C269.052 251.459 265.05 253.194 260.811 254.04C260.702 254.04 260.659 253.91 260.767 253.889C264.985 253.043 268.987 251.329 272.513 248.878C272.599 248.813 272.686 248.965 272.599 249.008Z" fill="#FE1810"/>
<g opacity="0.19">
<path d="M248.697 259.095C244.998 242.741 235.892 227.687 221.464 219.206C219.301 217.927 216.943 216.777 214.434 216.842C211.925 216.907 209.308 218.621 209.026 221.115C208.68 224.26 211.817 226.494 213.98 228.815C218.695 233.869 219.431 241.504 223.432 247.144C225.855 250.571 229.338 253.065 232.863 255.343C237.492 258.336 243.29 260.245 248.676 259.117" fill="#FE1810"/>
</g>
<path d="M248.632 259.139C245.885 256.926 243.225 254.605 240.759 252.068C238.509 249.768 236.497 247.274 234.637 244.671C231.176 239.813 228.148 234.607 224.211 230.117C222.026 227.644 219.56 225.432 216.705 223.762C216.619 223.718 216.705 223.566 216.792 223.632C221.853 226.603 225.595 231.201 228.905 235.973C232.452 241.071 235.675 246.406 239.937 250.983C242.662 253.89 245.647 256.536 248.762 259.052C248.849 259.117 248.719 259.225 248.654 259.16L248.632 259.139Z" fill="#FE1810"/>
<path d="M223.432 223.483C224.795 226.563 225.898 229.752 226.742 233.005C226.764 233.114 226.612 233.157 226.591 233.048C225.769 229.795 224.665 226.628 223.303 223.548C223.259 223.461 223.389 223.375 223.432 223.461V223.483Z" fill="#FE1810"/>
<path d="M235.113 232.655C235.957 237.557 236.562 242.524 236.93 247.491C236.93 247.6 236.779 247.6 236.779 247.491C236.433 242.546 235.827 237.601 234.983 232.699C234.983 232.59 235.113 232.547 235.135 232.655H235.113Z" fill="#FE1810"/>
<path d="M240.434 251.721C237.471 252.545 234.161 251.786 231.869 249.725C231.782 249.66 231.912 249.552 231.977 249.617C234.226 251.634 237.471 252.393 240.391 251.591C240.499 251.569 240.543 251.721 240.434 251.743V251.721Z" fill="#FE1810"/>
<path d="M232.755 241.851C229.792 242.675 226.483 241.916 224.19 239.855C224.103 239.79 224.233 239.681 224.298 239.747C226.547 241.764 229.792 242.523 232.712 241.72C232.82 241.699 232.864 241.85 232.755 241.872V241.851Z" fill="#FE1810"/>
<path d="M235.935 260.267L235.719 259.03C235.567 258.184 236.216 257.425 237.06 257.425H267.257C268.1 257.425 268.749 258.184 268.598 259.03L264.163 283.671C261.827 282.673 258.885 281.22 255.662 279.202C249.909 275.602 242.251 269.594 235.957 260.267H235.935Z" fill="#D2DAE1"/>
<path d="M255.641 279.202C258.864 281.22 261.806 282.673 264.142 283.671V283.801L263.645 286.447C263.536 287.098 262.974 287.553 262.325 287.575L242.1 287.705C241.451 287.705 240.867 287.228 240.759 286.577L236.022 260.57L235.957 260.267C242.273 269.594 249.909 275.624 255.663 279.202H255.641Z" fill="#C0CED8"/>
<path d="M100.642 342.229C105.098 385.545 108.538 428.948 110.939 472.415C111.112 475.408 106.288 475.886 106.115 472.871C103.692 429.403 100.275 386 95.8188 342.685C95.516 339.691 100.318 339.236 100.642 342.229Z" fill="#D2DAE1"/>
<path d="M58.5705 343.814C54.4174 386.045 51.2593 428.363 49.0746 470.724C48.9232 473.653 53.6171 474.087 53.7685 471.158C55.9316 428.775 59.1113 386.479 63.2645 344.248C63.5457 341.319 58.8734 340.907 58.5705 343.814Z" fill="#D2DAE1"/>
<path d="M107.521 349.345C119.223 390.231 129.974 431.356 139.751 472.698C140.421 475.561 135.901 476.776 135.208 473.913C125.431 432.571 114.681 391.446 102.978 350.559C102.157 347.718 106.699 346.525 107.521 349.345Z" fill="#D2DAE1"/>
<path d="M118.574 354.354C97.8954 355.591 77.173 355.764 56.4939 354.897C51.2376 354.68 45.8083 354.333 41.1577 351.86C33.1759 347.587 29.5635 338.26 26.6001 329.692C17.818 304.401 9.0575 279.089 1.59486 253.364C0.0807032 248.136 -1.23877 242.02 2.00585 237.66C5.31537 233.213 12.9943 235.1 17.4286 238.397C25.9945 244.753 39.0162 282.798 44.9214 287.114C49.6153 290.563 46.3707 274.729 48.5987 280.13C51.3674 286.875 54.2226 287.157 56.1911 294.185C59.4789 305.985 60.4307 296.441 65.7952 307.46C71.1596 318.478 80.5474 328.391 92.5741 330.538C98.4145 331.579 104.536 330.733 110.182 332.534C114.811 334.009 128.438 338.629 130.861 342.837C133.283 347.066 128.049 353.248 119.137 354.181" fill="#D2DAE1"/>
<path d="M51.5621 347.175C39.8598 388.062 29.1093 429.187 19.3322 470.529C18.6616 473.392 23.1825 474.606 23.8747 471.743C33.6518 430.401 44.4023 389.276 56.1046 348.39C56.9266 345.548 52.3841 344.356 51.5621 347.175Z" fill="#D2DAE1"/>
<path d="M80.2014 191.502C75.5291 198.617 76.6322 207.922 77.9301 216.338C71.5273 212.498 64.8002 209.245 57.8134 206.62C61.5123 202.065 63.2428 196.122 63.2211 190.244C63.2211 184.388 61.534 178.618 59.0032 173.326" fill="#F4A88E"/>
<path d="M84.5924 140.378C94.283 145.367 100.123 156.971 98.3712 167.751C98.1549 169.074 97.8521 170.419 98.1116 171.721C98.674 174.454 100.902 175.495 102.979 177.902C103.173 178.141 103.476 178.857 103.065 179.442C102.719 179.92 102.135 180.093 101.573 180.245C99.3879 180.852 98.8687 183.629 98.6307 185.884C98.2847 189.138 97.6791 192.348 96.8355 195.493C96.6624 196.144 96.3812 196.882 95.7539 197.098C95.3646 197.229 94.0451 197.446 92.5958 197.164C81.5424 194.951 72.6737 189.745 64.8217 181.655C56.9481 173.564 53.0546 160.659 58.2244 150.616C62.8966 141.549 74.7504 136.994 84.268 140.617" fill="#F4A88E"/>
<path d="M89.3295 141.073C93.461 142.201 96.1649 146.561 96.3379 150.834C96.5109 155.107 94.521 159.249 91.8388 162.611C89.1566 165.974 85.7821 168.663 82.5591 171.505C81.1531 172.741 79.747 174.086 79.0332 175.843C77.1513 180.549 81.1531 185.386 82.1914 190.332C83.2729 195.516 80.6555 201.264 76.0482 203.845C71.4408 206.426 65.1679 205.624 61.3609 201.958C59.8467 200.505 58.657 198.639 56.8617 197.555C53.5954 195.581 49.4423 196.709 45.6353 196.969C39.5786 197.381 33.1326 195.082 29.4986 190.202C25.8646 185.321 25.7349 177.795 29.9313 173.392C31.2291 172.047 32.8731 171.006 33.9113 169.444C36.2691 165.952 34.928 161.31 34.9712 157.102C35.0361 149.185 41.0495 141.615 48.7717 140.032C51.1944 139.533 53.7685 139.555 56.0397 138.579C58.8733 137.342 60.8417 134.718 63.3509 132.896C65.7303 131.139 68.6504 130.119 71.5922 130.011C73.8635 129.924 76.1779 130.358 78.2112 131.399C82.6239 133.655 84.787 139.056 89.3079 141.116" fill="#283243"/>
<path d="M97.2897 166.862C94.8887 166.125 91.9253 165.539 89.5243 166.472C88.8537 166.732 88.5725 165.669 89.2214 165.409C91.7955 164.411 94.9968 164.997 97.5709 165.799C98.2414 166.016 97.9602 167.079 97.268 166.862H97.2897Z" fill="#283243"/>
<path d="M95.2136 171.809C95.7275 171.809 96.144 171.275 96.144 170.616C96.144 169.957 95.7275 169.422 95.2136 169.422C94.6997 169.422 94.283 169.957 94.283 170.616C94.283 171.275 94.6997 171.809 95.2136 171.809Z" fill="#283243"/>
<path d="M98.7173 185.256L92.7472 185.777C92.7472 185.777 96.2946 188.467 98.3063 188.423L98.7173 185.256Z" fill="#FE1810"/>
<path d="M112.994 345.94C127.14 347.133 141.244 348.976 155.239 351.449C159.608 352.23 164.843 353.878 165.795 358.238C166.335 360.776 165.146 363.292 164.215 365.699C154.179 391.533 171.916 422.073 161.771 447.863C168.304 450.552 174.836 453.242 181.369 455.932C184.613 457.276 193.785 458.426 196.856 456.713C190.237 453.069 181.239 445.65 180.222 438.146C179.206 430.641 179.444 419.557 180.265 412.03C181.477 401.077 182.84 393.572 183.229 382.575C184.44 347.957 184.073 358.108 184.44 347.957C184.613 343.076 184.635 337.697 181.585 333.901" fill="#E88970"/>
<path d="M163.415 443.219C157.618 447.97 155.693 458.056 158.635 464.953C161.036 465.973 163.783 465.344 166.4 465.192C171.072 464.888 175.68 466.124 180.201 467.252C190.172 469.703 200.75 471.655 210.57 468.662C212.041 468.207 213.642 467.534 214.269 466.103C215.005 464.433 214.031 462.415 212.56 461.353C211.089 460.29 209.251 459.899 207.477 459.444C202.242 458.099 197.224 455.865 192.703 452.85C192.054 452.416 191.362 451.961 190.583 451.982C189.978 451.982 189.415 452.329 188.875 452.611C180.201 457.231 169.601 450.876 163.415 443.219Z" fill="#EA0A0A"/>
<path d="M125.15 316.699C144.272 321.84 163.394 327.002 182.515 332.143C185.154 332.859 187.945 333.639 189.848 335.613C191.622 337.435 192.357 340.016 192.984 342.489C201.031 373.42 203.865 405.695 214.14 435.975C217.449 445.736 222.251 456.038 231.466 460.593C232.677 461.179 234.083 461.851 234.343 463.175C220.953 461.049 207.694 458.099 194.672 454.347C199.431 450.681 200.296 443.61 198.609 437.818C196.921 432.027 190.648 419.468 188.009 414.046C180.395 398.299 178.47 395.435 177.951 381.076C177.735 375.263 178.124 369.385 177.043 363.659C176.502 360.774 175.377 357.672 172.825 356.219C171.527 355.482 170.013 355.265 168.542 355.07C150.004 352.488 131.445 349.907 112.907 347.304" fill="#F4A88E"/>
<path d="M198.998 447.147C193.201 451.897 191.276 461.983 194.217 468.88C196.618 469.9 199.366 469.271 201.983 469.119C206.655 468.815 211.263 470.052 215.783 471.179C225.755 473.63 236.333 475.583 246.153 472.589C247.624 472.134 249.225 471.461 249.852 470.03C250.587 468.36 249.614 466.343 248.143 465.28C246.672 464.217 244.834 463.826 243.06 463.371C237.825 462.026 232.807 459.792 228.286 456.777C227.637 456.343 226.945 455.888 226.166 455.909C225.561 455.909 224.998 456.256 224.457 456.538C215.783 461.159 205.184 454.803 198.998 447.147Z" fill="#FE1810"/>
<path d="M80.1147 295.118C78.9683 297.331 80.2662 300.085 82.3644 301.625C84.4626 303.165 87.188 303.751 89.7837 304.358C103.433 307.482 116.822 311.581 129.779 316.57C130.342 316.787 130.947 317.047 131.207 317.546C131.423 317.98 131.337 318.479 131.207 318.956L124.869 348.043C124.631 349.171 123.549 349.93 122.403 349.778C105.682 347.739 88.7238 349.171 71.8517 348.173C62.7884 347.652 57.0346 346.828 51.0862 344.768C40.5519 341.102 37.1775 332.122 37.8913 321.863C38.6051 311.603 44.0129 302.168 49.2908 293.079" fill="#23005C"/>
<path d="M104.904 279.22C108.083 278.677 111.285 278.135 114.465 277.593C129.282 275.077 144.272 272.539 159.262 273.602C162.766 273.84 166.357 274.318 169.493 275.944C172.63 277.571 175.247 280.543 175.593 284.057C173.452 285.011 172.219 282.256 170.251 280.998C168.866 280.109 166.357 279.241 165.081 279.198C162.55 279.155 160.192 279.198 157.532 280.022C155.715 280.564 154.157 280.825 152.383 281.519C150.588 282.235 148.836 283.102 146.976 283.601C144.596 284.23 141.244 284.447 138.843 283.883C132.094 282.256 130.169 285.011 125.669 287.115C120.478 289.544 115.287 291.974 110.095 294.425" fill="#F4A88E"/>
<path d="M61.123 200.505C61.9233 203.802 64.0431 207.12 67.0931 208.574C70.143 210.027 73.4958 211.09 75.9617 213.389C78.6007 215.84 79.8985 219.397 81.0882 222.802C83.619 229.939 86.1282 237.075 88.659 244.211C89.8054 247.421 90.9518 250.826 90.3894 254.188C90.065 256.141 89.1781 257.941 88.3994 259.741C83.8137 270.196 81.8453 281.779 82.7105 293.166C82.7754 294.099 82.7754 295.248 81.9535 295.726C81.6939 295.877 81.3694 295.921 81.0665 295.986C69.494 297.699 57.6188 297.461 46.1112 295.248C49.3125 284.208 49.6586 272.343 47.1494 261.129C45.9381 255.707 44.0562 250.436 43.4073 244.927C42.4555 236.923 44.1211 228.724 47.2792 221.306C50.4373 213.888 56.1046 206.795 61.123 200.483" fill="#FF6503"/>
<path d="M86.3229 261.975C86.3229 261.975 79.4876 267.289 68.975 261.107C58.4625 254.925 72.8253 274.902 77.649 273.102C82.4727 271.302 86.3229 261.996 86.3229 261.996V261.975Z" fill="#EA5706"/>
<path d="M58.7219 214.69C67.093 213.671 70.6622 224.625 72.1979 231.522C73.7337 238.42 73.4742 245.577 73.8203 252.649C74.2745 261.802 75.7454 270.912 78.1897 279.74C78.5791 281.106 79.163 282.646 80.5041 283.059C81.2396 283.275 82.04 283.08 82.7755 282.885L110.29 275.684C111.977 275.25 113.643 276.291 114.097 278.005C115.135 281.866 117.579 285.575 116.671 289.436C116.282 291.127 115.243 292.602 114.183 293.991C104.579 306.571 90.1948 315.377 74.6639 318.219C65.7304 319.845 55.7369 319.282 48.7285 313.49C40.9846 307.07 38.9513 296.138 38.0428 286.117C36.9613 274.274 36.7666 262.257 38.9081 250.566C41.0495 238.875 42.6286 226.707 52.0596 217.553C53.6387 216.013 56.5156 215.124 58.6787 214.734" fill="#EA5706"/>
<path d="M169.883 287.461C190.778 287.526 211.695 287.591 232.59 287.656C235.619 287.656 238.626 287.656 241.654 287.678C242.389 287.678 242.93 287.179 243.168 286.528C249.441 269.176 255.692 251.824 261.965 234.471L264.626 227.118C265.318 225.231 262.29 224.407 261.619 226.294C255.346 243.646 249.095 260.999 242.822 278.351C241.935 280.802 241.048 283.253 240.161 285.704L241.675 284.555C220.78 284.49 199.863 284.424 178.968 284.359C175.939 284.359 172.933 284.359 169.904 284.338C167.893 284.338 167.893 287.461 169.904 287.461H169.883Z" fill="#283243"/>
<path d="M556.616 341.906C552.16 383.573 548.742 425.305 546.32 467.103C546.147 469.988 550.97 470.443 551.143 467.537C553.544 425.739 556.984 383.985 561.44 342.339C561.742 339.455 556.94 339.021 556.616 341.906Z" fill="#D2DAE1"/>
<path d="M598.688 345.484C602.841 386.045 605.999 426.671 608.184 467.384C608.335 470.204 603.641 470.616 603.49 467.796C601.327 427.105 598.147 386.457 593.994 345.896C593.713 343.077 598.385 342.686 598.688 345.484Z" fill="#D2DAE1"/>
<path d="M549.759 348.715C538.057 387.975 527.306 427.473 517.529 467.188C516.858 469.943 521.379 471.114 522.072 468.359C531.849 428.644 542.599 389.146 554.301 349.886C555.123 347.175 550.581 346.004 549.759 348.715Z" fill="#D2DAE1"/>
<path d="M538.706 354.093C559.385 355.329 580.107 355.503 600.786 354.635C606.042 354.418 611.472 354.071 616.122 351.599C624.104 347.326 627.716 337.999 630.68 329.431C639.462 304.14 648.222 278.827 655.685 253.102C657.199 247.875 658.519 241.758 655.274 237.398C651.965 232.952 645.605 232.561 640.068 232.561C632.756 232.561 624.883 232.735 618.978 237.073C614.284 240.522 611.623 246.053 609.395 251.454C606.626 258.2 604.247 265.14 602.278 272.168C598.991 283.968 596.828 296.223 591.463 307.22C586.099 318.239 576.711 328.151 564.684 330.299C558.844 331.34 552.722 330.494 547.077 332.294C542.448 333.769 528.82 338.389 526.398 342.597C523.975 346.827 529.21 353.008 538.121 353.941" fill="#D2DAE1"/>
<path d="M605.718 348.715C617.42 387.975 628.171 427.473 637.948 467.188C638.618 469.943 634.098 471.114 633.405 468.359C623.628 428.644 612.878 389.146 601.175 349.886C600.353 347.175 604.896 346.004 605.718 348.715Z" fill="#D2DAE1"/>
<path d="M514.695 442.317C515.885 448.715 517.031 455.136 518.156 461.556C510.218 463.486 504.767 463.812 496.634 464.614C501.306 459.712 501.392 454.029 501.436 447.24C501.436 445.353 501.263 443.466 501.068 441.601" fill="#F4A88E"/>
<path d="M517.269 454.717C519.497 461.614 521.314 468.772 521.293 476.082C521.293 477.014 521.228 478.034 520.622 478.684C520.427 478.901 520.168 479.053 519.908 479.162C517.853 480.029 515.604 480.311 513.376 480.398L493.411 481.331C484.023 481.764 466.329 483.456 465.269 481.461C464.295 478.858 467.973 477.079 470.049 475.669C477.209 470.876 482.444 469.661 490.317 466.494C492.091 465.779 496.742 463.132 498.04 461.636C502.409 456.582 505.978 463.761 517.269 454.695" fill="#202B3A"/>
<path d="M441.475 445.173C439.788 451.463 438.057 457.754 436.305 464.022C428.302 462.33 423.262 460.248 415.583 457.45C421.921 455.042 424.43 449.967 427.393 443.872C428.215 442.18 428.864 440.401 429.491 438.623" fill="#F4A88E"/>
<path d="M438.447 457.493C437.473 464.672 436.046 471.917 432.866 478.511C432.455 479.357 431.957 480.246 431.135 480.571C430.854 480.68 430.573 480.723 430.27 480.702C428.042 480.593 425.901 479.856 423.846 478.988L405.438 471.179C396.786 467.514 380.087 461.354 380 459.098C380.26 456.343 384.326 456.322 386.814 455.953C395.336 454.738 400.571 455.909 409.05 456.452C410.954 456.582 416.297 456.191 418.114 455.411C424.235 452.743 424.343 460.768 438.468 457.493" fill="#202B3A"/>
<path d="M542.924 299.779C519 306.373 495.552 314.659 472.796 324.55C468.968 326.22 465.009 328.042 462.327 331.252C460.337 333.638 459.191 336.588 458.109 339.494C446.212 371.184 435.808 403.416 426.896 436.06C426.442 437.752 426.009 439.726 427.026 441.157C427.675 442.09 428.778 442.545 429.816 442.979C433.212 444.389 436.586 445.777 439.982 447.187C440.502 447.404 441.042 447.621 441.583 447.512C442.297 447.361 442.773 446.71 443.162 446.103C454.886 428.208 461.83 407.667 468.665 387.387C471.672 378.45 474.678 369.535 477.685 360.599C478.485 358.191 479.307 355.762 480.67 353.615C484.066 348.192 490.339 345.264 496.547 343.767C502.755 342.271 509.201 341.945 515.344 340.188C525.338 337.347 534.012 330.97 543.875 327.695C550.754 325.417 558.043 324.701 565.095 323.031C572.147 321.361 579.263 318.52 583.979 313.01C588.694 307.501 590.209 298.738 585.861 292.925" fill="#190247"/>
<path d="M571.952 307.635C557.481 309.717 543.01 311.647 528.496 313.448C519.324 314.597 510.11 315.682 501.111 317.742C494.362 319.282 487.743 321.365 481.341 323.968C479.437 324.748 477.469 325.638 476.279 327.308C475.241 328.761 474.938 330.605 474.808 332.383C474.419 337.329 475.024 342.296 476.365 347.09C485.083 378.454 491.702 410.426 496.179 442.679C496.352 443.981 496.677 447.104 497.131 447.104C497.455 447.104 499.727 447.039 500.873 447.061C507.016 447.213 513.181 446.887 519.281 446.106C519.93 414.026 509.244 382.835 506.238 350.907C506.173 350.213 506.129 349.476 506.476 348.89C506.843 348.283 507.579 347.979 508.271 347.784C517.291 345.007 526.917 348.001 536.326 348.586C540.176 348.825 544.048 348.651 547.92 348.478C561.115 347.892 574.288 347.307 587.483 346.721C590.209 346.591 592.977 346.461 595.53 345.506C600.44 343.641 604.507 340.778 605.999 335.724C607.492 330.67 606.67 323.36 606.562 318.111C606.41 309.869 606.237 301.626 606.086 293.362" fill="#23005C"/>
<path d="M587.375 158.122C587.375 158.122 580.237 164.065 580.475 166.06C581.253 172.741 581.491 176.19 585.104 181.873C586.791 184.541 591.723 190.072 594.751 190.939C594.513 192.024 593.518 192.74 592.588 193.304C583.027 199.095 570.698 199.984 560.401 195.646C563.949 189.443 564.122 181.439 560.877 175.084" fill="#E88970"/>
<path d="M457.806 271.737C452.918 272.105 447.943 272.474 443.119 271.606C441.41 271.303 439.723 270.826 437.971 270.652C430.14 269.871 422.721 275.294 418.914 282.191C418.525 282.907 418.157 283.796 418.589 284.469C419.26 285.532 420.904 284.968 421.921 284.23C423.889 282.842 425.749 281.237 427.912 280.174C430.075 279.111 432.671 278.612 434.899 279.502C437.776 280.673 438.663 283.037 441.756 283.471C442.816 283.623 445.887 283.71 446.926 283.536C451.576 282.82 456.768 279.09 461.289 280.391" fill="#F4A88E"/>
<path d="M557.113 193.023C539.138 197.361 535.807 217.142 529.707 228.79C524.948 237.857 519.346 246.49 513.008 254.537C510.888 257.226 508.617 259.916 505.61 261.521C503.166 262.822 500.397 263.321 497.672 263.755C484.088 265.859 470.114 266.271 457.071 270.479C456.205 270.761 455.795 271.716 456.076 272.583C457.092 275.772 457.2 279.242 456.4 282.496C456.184 283.385 456.811 284.274 457.72 284.448C478.096 288.244 499.099 286.096 519.735 283.949C521.834 283.732 523.975 283.493 525.835 282.517C528.864 280.934 530.616 277.745 532.541 274.926C535.764 270.219 539.917 266.228 543.162 261.543C552.506 248.073 553.458 230.699 554.107 214.301" fill="#51B7B4"/>
<path d="M589.062 186.97C582.335 195.69 572.06 196.558 561.872 192.393C553.999 208.466 547.098 229.202 545.281 246.988C543.659 262.995 542.837 279.068 542.794 295.141C542.794 295.661 542.945 296.16 543.01 296.702C543.27 298.785 544.784 300.954 545.93 301.279C549.802 302.32 551.857 302.819 556.162 305.422C557.589 306.289 558.498 306.875 559.687 308.025C562.889 311.083 567.02 312.948 571.065 314.749C577.122 317.46 584.39 320.106 590.057 316.657C589.646 308.806 589.257 300.932 589.56 293.08C589.819 286.269 590.62 279.502 590.966 272.691C592.393 245.122 586.531 216.99 593.021 190.159" fill="#FE1810"/>
<path d="M513.808 274.296C508.92 274.664 503.945 275.033 499.121 274.165C497.412 273.862 495.725 273.385 493.973 273.211C486.142 272.43 478.723 277.853 474.916 284.75C474.527 285.466 474.159 286.355 474.592 287.028C475.262 288.091 476.906 287.527 477.923 286.789C479.891 285.401 481.752 283.796 483.915 282.733C486.078 281.67 488.673 281.171 490.901 282.061C493.778 283.232 494.665 285.596 497.758 286.03C498.818 286.182 501.89 286.269 502.928 286.095C507.579 285.379 512.77 281.649 517.291 282.95" fill="#F4A88E"/>
<path d="M579.177 238.745C575.24 237.487 571.065 237.01 566.934 237.335C563.04 237.639 558.346 239.743 558.433 243.647C558.476 245.361 559.471 246.879 560.336 248.376C562.759 252.584 564.057 258.397 560.747 261.954C558.649 264.21 554.994 265.229 554.237 268.201C553.674 270.392 555.037 272.582 556.4 274.383C561.115 280.586 566.782 286.074 573.142 290.585C574.786 291.757 576.56 292.885 578.571 293.123C581.426 293.449 584.217 291.843 586.055 289.631C587.894 287.419 588.954 284.686 589.992 281.996" fill="#E51010"/>
<path d="M561.872 192.415C547.855 225.102 551.295 262.323 547.769 297.743C547.682 298.567 547.552 299.478 546.882 299.977C546.406 300.324 545.757 300.346 545.173 300.346C543.378 300.346 541.561 300.368 539.765 300.389C539.203 300.389 538.597 300.389 538.1 300.086C537.083 299.478 537.105 298.003 537.235 296.811C539.333 276.422 536.802 274.209 539.441 253.885C540.198 248.072 542.08 232.368 543.464 226.685C544.892 220.872 546.147 205.255 549.521 200.31C552.895 195.364 555.902 192.002 561.872 192.436" fill="#66C9C9"/>
<path d="M589.322 186.649C574.764 205.151 573.099 230.507 571.303 253.998C569.767 274.213 568.362 292.585 566.826 312.801C576.365 327.962 595.097 326.769 602.279 341.736C605.804 339.133 606.605 333.71 607.037 329.698C610.974 293.583 614.933 257.36 614.392 221.05C614.305 215.888 614.111 210.574 612.121 205.824C608.076 196.193 598.753 191.052 589.3 186.649" fill="#66C9C9"/>
<path d="M609.525 201.287C607.34 197.99 603.923 197.946 600.873 199.161C596.157 201.048 592.718 205.321 590.62 209.941C588.5 214.561 587.505 219.615 586.25 224.539C583.157 236.62 578.355 248.246 572.06 259.005C570.784 261.196 569.356 263.43 567.193 264.731C564.295 266.488 560.682 266.293 557.308 266.119C548.612 265.686 539.895 265.794 531.221 266.488C524.256 267.03 517.313 267.963 510.456 269.264C511.299 275.359 510.91 281.628 509.288 287.55C517.377 287.81 525.489 288.07 533.579 288.33C550.538 288.873 567.539 289.415 584.433 288.092C586.034 287.962 587.656 287.81 589.105 287.181C591.442 286.14 593.064 283.971 594.513 281.845C606.843 263.799 608.292 247.032 613.613 225.819C616.836 212.934 612.359 205.104 609.547 201.265" fill="#51B7B4"/>
<path d="M552.333 130.098C549.845 130.359 547.855 132.441 546.947 134.784C546.038 137.126 546.017 139.686 545.995 142.202C545.952 149.056 545.93 156.04 547.942 162.591C549.153 166.56 551.1 170.269 553.025 173.956C553.804 175.431 554.604 176.95 555.859 178.013C559.601 181.114 565.268 179.032 569.313 176.364C572.796 174.065 582.054 164.63 584.282 161.094C586.51 157.558 592.35 148.731 580.951 140.662" fill="#F4A88E"/>
<path d="M581.189 169.956C580.691 169.262 580.345 168.936 580.129 167.917C579.912 166.897 580.54 165.227 581.059 164.295C582.227 162.147 582.205 161.865 583.481 159.783C584.758 157.701 586.272 154.512 585.061 152.365C583.849 150.217 581.037 150.152 579.977 152.365C579.263 153.861 579.869 154.751 578.29 155.271C574.375 152.061 575.824 146.595 573.25 142.214C572.471 140.891 569.768 139.004 568.708 138.765C561.959 137.29 560.726 138.461 554.085 138.049C547.445 137.637 540.09 135.034 537.581 128.874C536.261 125.642 536.543 121.998 536.845 118.506C536.889 118.007 536.932 117.508 537.17 117.075C537.754 115.99 539.268 115.795 540.436 116.185C541.604 116.576 542.599 117.356 543.724 117.834C546.925 119.178 550.516 117.834 553.934 117.248C559.839 116.229 565.852 117.595 571.671 118.94C576.365 120.024 581.275 121.239 584.779 124.536C587.159 126.77 588.651 129.807 589.733 132.887C591.853 138.895 592.566 145.511 591.074 151.692C589.581 157.874 586.618 166.746 581.124 169.934" fill="#283243"/>
<path d="M559.709 148.579C562.326 147.213 566.004 145.846 568.816 147.299C569.443 147.625 568.881 148.579 568.253 148.254C565.852 147.017 562.478 148.362 560.25 149.533C559.623 149.859 559.06 148.904 559.687 148.579H559.709Z" fill="#283243"/>
<path d="M553.566 149.576C551.403 148.838 548.764 148.253 546.601 149.185C546.017 149.446 545.757 148.383 546.341 148.123C548.656 147.125 551.533 147.71 553.847 148.513C554.453 148.73 554.193 149.793 553.587 149.576H553.566Z" fill="#283243"/>
<path d="M557.049 153.438C557.049 153.438 556.075 159.598 554.885 163.025L558.606 163.524" fill="#E88970"/>
<path d="M564.273 166.951L554.193 167.732C554.193 167.732 558.087 173.913 564.273 166.951Z" fill="#F5F6F8"/>
<path d="M560.942 152.916C560.942 152.916 564.014 155.15 568.578 151.745L560.942 152.916Z" fill="#E88970"/>
<path d="M553.306 153.438C553.306 153.438 549.932 156.106 546.601 153.438H553.306Z" fill="#E88970"/>
<path d="M564.749 156.538C567.688 156.538 570.07 154.149 570.07 151.202C570.07 148.255 567.688 145.866 564.749 145.866C561.81 145.866 559.428 148.255 559.428 151.202C559.428 154.149 561.81 156.538 564.749 156.538Z" stroke="#283243" stroke-width="0.25" stroke-miterlimit="10"/>
<path d="M549.564 157.688C552.503 157.688 554.885 155.299 554.885 152.352C554.885 149.405 552.503 147.016 549.564 147.016C546.625 147.016 544.243 149.405 544.243 152.352C544.243 155.299 546.625 157.688 549.564 157.688Z" stroke="#283243" stroke-width="0.25" stroke-miterlimit="10"/>
<path d="M559.428 151.203C559.428 151.203 557.33 149.88 554.799 151.507" stroke="#283243" stroke-width="0.25" stroke-miterlimit="10"/>
<path d="M570.07 150.486L579.999 148.296" stroke="#283243" stroke-width="0.25" stroke-miterlimit="10"/>
<path d="M485.585 292.733C501.982 352.815 517.037 413.267 530.729 474.043C531.681 478.251 525.321 480.03 524.37 475.822C510.677 415.045 495.622 354.594 479.226 294.512C478.08 290.347 484.439 288.568 485.585 292.733Z" fill="#D2DAE1"/>
<path d="M160.928 294.275L509.531 294.275C511.084 294.275 512.343 293.012 512.343 291.455V290.848C512.343 289.29 511.084 288.028 509.531 288.028L160.928 288.028C159.375 288.028 158.116 289.29 158.116 290.848V291.455C158.116 293.012 159.375 294.275 160.928 294.275Z" fill="#D2DAE1"/>
<path d="M185.717 292.733C169.321 352.815 154.266 413.267 140.574 474.043C139.622 478.251 145.981 480.03 146.933 475.822C160.625 415.045 175.68 354.594 192.077 294.512C193.223 290.347 186.864 288.568 185.717 292.733Z" fill="#D2DAE1"/>
</svg>
