<svg width="486" height="466" viewBox="0 0 486 466" fill="none" xmlns="http://www.w3.org/2000/svg">
<path d="M252 42C247.226 42 242.648 40.1036 239.272 36.7279C235.896 33.3523 234 28.7739 234 24C234 19.2261 235.896 14.6477 239.272 11.2721C242.648 7.89642 247.226 6 252 6C261.94 6 270 13.164 270 22C270 24.12 269.052 26.156 267.364 27.656C265.676 29.156 263.386 30 261 30H256C255.108 29.9856 254.236 30.27 253.524 30.808C252.812 31.346 252.301 32.1066 252.071 32.9688C251.841 33.8311 251.906 34.7455 252.255 35.5665C252.605 36.3876 253.219 37.0682 254 37.5C254.399 37.8685 254.673 38.3528 254.783 38.8849C254.893 39.4171 254.833 39.9702 254.613 40.4668C254.392 40.9633 254.021 41.3782 253.553 41.6532C253.084 41.9282 252.541 42.0495 252 42Z" stroke="#777777" stroke-width="1.5" stroke-linecap="round" stroke-linejoin="round"/>
<path d="M243 21C243 21.5304 243.211 22.0391 243.586 22.4142C243.961 22.7893 244.47 23 245 23C245.53 23 246.039 22.7893 246.414 22.4142C246.789 22.0391 247 21.5304 247 21C247 20.4696 246.789 19.9609 246.414 19.5858C246.039 19.2107 245.53 19 245 19C244.47 19 243.961 19.2107 243.586 19.5858C243.211 19.9609 243 20.4696 243 21Z" stroke="#777777" stroke-width="1.5" stroke-linecap="round" stroke-linejoin="round"/>
<path d="M251 15C251 15.5304 251.211 16.0391 251.586 16.4142C251.961 16.7893 252.47 17 253 17C253.53 17 254.039 16.7893 254.414 16.4142C254.789 16.0391 255 15.5304 255 15C255 14.4696 254.789 13.9609 254.414 13.5858C254.039 13.2107 253.53 13 253 13C252.47 13 251.961 13.2107 251.586 13.5858C251.211 13.9609 251 14.4696 251 15Z" stroke="#777777" stroke-width="1.5" stroke-linecap="round" stroke-linejoin="round"/>
<path d="M259 21C259 21.5304 259.211 22.0391 259.586 22.4142C259.961 22.7893 260.47 23 261 23C261.53 23 262.039 22.7893 262.414 22.4142C262.789 22.0391 263 21.5304 263 21C263 20.4696 262.789 19.9609 262.414 19.5858C262.039 19.2107 261.53 19 261 19C260.47 19 259.961 19.2107 259.586 19.5858C259.211 19.9609 259 20.4696 259 21Z" stroke="#777777" stroke-width="1.5" stroke-linecap="round" stroke-linejoin="round"/>
<path d="M412 97H395C394.47 97 393.961 96.7893 393.586 96.4142C393.211 96.0391 393 95.5304 393 95V75C393 74.4696 393.211 73.9609 393.586 73.5858C393.961 73.2107 394.47 73 395 73H427C427.53 73 428.039 73.2107 428.414 73.5858C428.789 73.9609 429 74.4696 429 75V91M401 105H409M405 97V105M427 107L431 103L427 99M421 99L417 103L421 107" stroke="#777777" stroke-width="1.5" stroke-linecap="round" stroke-linejoin="round"/>
<path d="M450 248C451.061 248 452.078 248.421 452.828 249.172C453.579 249.922 454 250.939 454 252C454 253.061 453.579 254.078 452.828 254.828C452.078 255.579 451.061 256 450 256C448.939 256 447.922 255.579 447.172 254.828C446.421 254.078 446 253.061 446 252C446 250.939 446.421 249.922 447.172 249.172C447.922 248.421 448.939 248 450 248ZM450 248H461M450 248V220H446M450 224L478 226L476 240H450M478 256L482 252L478 248M472 248L468 252L472 256" stroke="#777777" stroke-width="1.5" stroke-linecap="round" stroke-linejoin="round"/>
<path d="M410 412H403C401.939 412 400.922 411.579 400.172 410.828C399.421 410.078 399 409.061 399 408V380C399 378.939 399.421 377.922 400.172 377.172C400.922 376.421 401.939 376 403 376H419C420.061 376 421.078 376.421 421.828 377.172C422.579 377.922 423 378.939 423 380V396M427 412L431 408L427 404M421 404L417 408L421 412M409 378H413M411 404V404.02" stroke="#777777" stroke-width="1.5" stroke-linecap="round" stroke-linejoin="round"/>
<path d="M90.866 76H77V108H103V92M95 100H85M97 76V72M103 78L107 74M105 84H109M85 92H95V84H85V92Z" stroke="#777777" stroke-width="1.5" stroke-linecap="round" stroke-linejoin="round"/>
<path d="M40 230.08L15.756 254.328C15.2255 254.859 14.5956 255.28 13.9024 255.567C13.2091 255.854 12.4661 256.002 11.7157 256.002C10.2002 256.002 8.74675 255.4 7.67501 254.329C6.60328 253.258 6.00107 251.804 6.00089 250.289C6.0007 248.773 6.60254 247.32 7.67401 246.248L31.918 222M14 240H30M30 220L42 232M38 244L41 247.2C41.5092 247.777 41.8409 248.489 41.9555 249.251C42.07 250.012 41.9625 250.79 41.6458 251.492C41.329 252.193 40.8166 252.788 40.1699 253.206C39.5232 253.624 38.7698 253.846 38 253.846C37.2302 253.846 36.4768 253.624 35.8301 253.206C35.1834 252.788 34.671 252.193 34.3542 251.492C34.0375 250.79 33.93 250.012 34.0445 249.251C34.1591 248.489 34.4908 247.777 35 247.2L38 244Z" stroke="#777777" stroke-width="1.5" stroke-linecap="round" stroke-linejoin="round"/>
<path d="M97 400L105.14 408.568C105.826 409.289 106.726 409.769 107.708 409.935C108.689 410.101 109.697 409.944 110.582 409.488C111.466 409.032 112.179 408.302 112.613 407.406C113.048 406.511 113.18 405.499 112.99 404.522L109.79 388.058M85 388V392M83 390H87M97 390H101M100 380C102.652 380 105.196 381.054 107.071 382.929C108.946 384.804 110 387.348 110 390C110 392.652 108.946 395.196 107.071 397.071C105.196 398.946 102.652 400 100 400H89L80.97 408.454C80.2831 409.177 79.3798 409.658 78.3962 409.823C77.4125 409.988 76.4019 409.829 75.5165 409.369C74.6312 408.91 73.919 408.176 73.4875 407.276C73.056 406.377 72.9284 405.362 73.124 404.384L76.392 388.038C76.8456 385.771 78.0708 383.731 79.859 382.266C81.6472 380.8 83.888 379.999 86.2 380H100Z" stroke="#777777" stroke-width="1.5" stroke-linecap="round" stroke-linejoin="round"/>
<path d="M247 436H253M236 436H241M250 436L256 458L264 440M264 440C264.354 438.944 266 437.272 266 435C266 431.44 264.448 430 262.25 430C260.454 430 260 431.624 260 432.858C260 436.518 264 436.974 264 440ZM239 436L246 458L252 444M234 442C234 444.364 234.466 446.704 235.37 448.888C236.275 451.072 237.601 453.056 239.272 454.728C240.944 456.399 242.928 457.725 245.112 458.63C247.296 459.534 249.636 460 252 460C254.364 460 256.704 459.534 258.888 458.63C261.072 457.725 263.056 456.399 264.728 454.728C266.399 453.056 267.725 451.072 268.63 448.888C269.534 446.704 270 444.364 270 442C270 439.636 269.534 437.296 268.63 435.112C267.725 432.928 266.399 430.944 264.728 429.272C263.056 427.601 261.072 426.275 258.888 425.37C256.704 424.466 254.364 424 252 424C249.636 424 247.296 424.466 245.112 425.37C242.928 426.275 240.944 427.601 239.272 429.272C237.601 430.944 236.275 432.928 235.37 435.112C234.466 437.296 234 439.636 234 442Z" stroke="#777777" stroke-width="1.5" stroke-linecap="round" stroke-linejoin="round"/>
</svg>
