<svg width="201" height="52" viewBox="0 0 201 52" fill="none" xmlns="http://www.w3.org/2000/svg">
<g clip-path="url(#clip0_11_108)">
<path d="M185.235 15.6416C192.283 22.8072 201.546 34.0236 200.974 44.5692C199.625 55.2864 186.054 52.2808 179.373 48.6564C173.448 45.7288 168.231 41.678 163.576 37.128C158.995 32.5052 154.912 27.3312 151.957 21.4552C148.31 14.8356 145.276 1.3572 156.077 0.0260017C166.688 -0.551198 178.024 8.658 185.235 15.6416ZM184.999 15.8756C178.265 9.412 170.194 3.432 160.831 1.7524C147.654 -0.129998 150.346 12.2356 154.948 19.8952C157.977 25.2356 161.939 30.082 166.316 34.4136C170.682 38.7608 175.563 42.6868 180.947 45.6924C188.641 50.2424 201.136 52.9464 199.231 39.858C197.536 30.5708 191.511 22.5628 184.993 15.8808L184.999 15.8756Z" fill="#BABABA"/>
<path d="M185.235 36.3583C178.014 43.3523 166.709 52.5407 156.077 51.9739C145.276 50.6375 148.304 37.1695 151.957 30.5447C154.912 24.6635 158.995 19.4895 163.576 14.8719C168.231 10.3219 173.448 6.27114 179.373 3.34354C186.048 -0.275658 199.63 -3.28646 200.974 7.43074C201.556 17.9607 192.273 29.2031 185.235 36.3583ZM184.999 36.1243C191.512 29.4475 197.542 21.4343 199.237 12.1471C201.131 -0.925657 188.667 1.74714 180.952 6.31274C175.568 9.31834 170.687 13.2443 166.321 17.5915C161.944 21.9231 157.982 26.7643 154.954 32.1099C150.367 39.7435 147.643 52.1403 160.837 50.2527C170.199 48.5731 178.271 42.5931 185.004 36.1295L184.999 36.1243Z" fill="#BABABA"/>
<path d="M166.825 32.5052V30.6748L168.184 30.3888V21.6216L166.825 21.3356V19.4948H172.697V21.3356L171.338 21.6216V30.3888L172.697 30.6748V32.5052H166.825Z" fill="#FF0000"/>
<path d="M177.048 32.5052V30.6748L178.418 30.3888V21.9284H176.392L176.313 23.3324H173.925V19.5H186.111V23.3324H183.697L183.624 21.9284H181.577V30.3888L182.947 30.6748V32.5052H177.048Z" fill="#FF0000"/>
<path d="M14.4951 19.5052C13.5767 19.3804 12.7685 19.318 12.0705 19.318C9.51995 19.318 7.85107 20.1708 7.05862 21.8816V38.2408H0.320129V13.2444H6.686L6.87493 16.224C8.22893 13.9308 10.1025 12.7816 12.4956 12.7816C13.2408 12.7816 13.9388 12.8804 14.5948 13.0832L14.5003 19.5052H14.4951Z" fill="#333333"/>
<path d="M31.6562 38.246C31.3466 37.648 31.1209 36.8992 30.9792 36.0048C29.3471 37.8092 27.2269 38.7088 24.6133 38.7088C22.1415 38.7088 20.0948 38.0016 18.4679 36.582C16.841 35.1676 16.0328 33.3788 16.0328 31.2208C16.0328 28.574 17.0247 26.5408 19.0032 25.1212C20.9869 23.7068 23.8471 22.9892 27.5942 22.9736H30.6958V21.5436C30.6958 20.3892 30.3967 19.4636 29.7984 18.772C29.2001 18.0804 28.2555 17.732 26.9644 17.732C25.8309 17.732 24.9387 18.0024 24.2932 18.5432C23.6477 19.084 23.3276 19.8224 23.3276 20.7636H16.5891C16.5891 19.318 17.0404 17.9764 17.9431 16.744C18.8457 15.5116 20.121 14.5444 21.7689 13.8424C23.4168 13.1404 25.2641 12.792 27.3161 12.792C30.4229 12.792 32.8947 13.5668 34.7211 15.1164C36.5474 16.666 37.4605 18.8396 37.4605 21.6424V32.4792C37.4763 34.8504 37.8122 36.6444 38.4629 37.8612V38.2564H31.6562V38.246ZM26.0828 33.6024C27.0799 33.6024 27.9931 33.384 28.8327 32.942C29.6724 32.5052 30.2917 31.9124 30.6958 31.174V26.8788H28.1767C24.8023 26.8788 23.0074 28.0332 22.7923 30.3472L22.7713 30.7372C22.7713 31.5692 23.0652 32.2556 23.6582 32.7912C24.2512 33.332 25.0594 33.5972 26.0828 33.5972V33.6024Z" fill="#333333"/>
<path d="M48.8435 13.2444L49.0535 16.1304C50.8588 13.8996 53.2729 12.7816 56.3063 12.7816C58.9775 12.7816 60.9718 13.5616 62.2733 15.1164C63.58 16.6712 64.2465 18.9956 64.278 22.0948V38.246H57.5395V22.256C57.5395 20.8416 57.2299 19.812 56.6054 19.1724C55.9861 18.5328 54.9523 18.2156 53.5038 18.2156C51.6093 18.2156 50.187 19.0164 49.2371 20.618V38.246H42.4987V13.2444H48.8383H48.8435Z" fill="#333333"/>
<path d="M68.403 25.558C68.403 21.7256 69.3214 18.6368 71.1635 16.2916C73.0055 13.9464 75.4878 12.7816 78.6157 12.7816C81.3814 12.7816 83.5331 13.7228 85.076 15.6L85.3542 13.2444H91.4629V37.4088C91.4629 39.598 90.9591 41.496 89.9567 43.1132C88.9543 44.7304 87.5426 45.9628 85.7268 46.8104C83.9057 47.658 81.7802 48.0792 79.3399 48.0792C77.4926 48.0792 75.6873 47.7152 73.9292 46.982C72.1711 46.2488 70.8433 45.3076 69.9407 44.1532L72.9268 40.0868C74.6062 41.9484 76.6424 42.8844 79.0355 42.8844C80.8251 42.8844 82.2158 42.4112 83.2077 41.4648C84.2048 40.5184 84.6982 39.1716 84.6982 37.4348V36.0932C83.1447 37.8352 81.098 38.7036 78.5632 38.7036C75.5298 38.7036 73.079 37.5284 71.2054 35.178C69.3319 32.8276 68.3977 29.7128 68.3977 25.8336V25.558H68.403ZM75.1415 26.0572C75.1415 28.3244 75.598 30.1028 76.5165 31.3924C77.4349 32.682 78.6944 33.3268 80.295 33.3268C82.347 33.3268 83.8165 32.5624 84.7034 31.0336V20.5036C83.8007 18.9748 82.347 18.2104 80.3423 18.2104C78.7259 18.2104 77.4559 18.8656 76.5322 20.176C75.6085 21.4864 75.1467 23.4468 75.1467 26.052L75.1415 26.0572Z" fill="#333333"/>
<path d="M95.5931 25.5164C95.5931 23.036 96.0759 20.826 97.0363 18.8864C97.9967 16.9468 99.3874 15.444 101.198 14.3832C103.009 13.3224 105.113 12.7868 107.506 12.7868C110.912 12.7868 113.688 13.8164 115.84 15.8808C117.992 17.9452 119.194 20.748 119.445 24.2892L119.493 26C119.493 29.8376 118.412 32.9108 116.249 35.23C114.087 37.5492 111.19 38.7088 107.553 38.7088C103.916 38.7088 101.014 37.5544 98.8469 35.2456C96.6794 32.9368 95.5931 29.7908 95.5931 25.818V25.5164ZM102.332 25.9896C102.332 28.366 102.783 30.1808 103.686 31.4392C104.588 32.6976 105.879 33.3268 107.553 33.3268C109.227 33.3268 110.461 32.708 111.379 31.4652C112.298 30.2224 112.754 28.236 112.754 25.506C112.754 23.1764 112.298 21.372 111.379 20.0928C110.461 18.8136 109.17 18.174 107.511 18.174C105.853 18.174 104.588 18.8084 103.686 20.0824C102.783 21.3564 102.332 23.3272 102.332 25.9948V25.9896Z" fill="#333333"/>
<path d="M129.842 13.2444L130.052 16.1304C131.857 13.8996 134.271 12.7816 137.305 12.7816C139.976 12.7816 141.97 13.5616 143.272 15.1164C144.578 16.6712 145.245 18.9956 145.276 22.0948V38.246H138.538V22.256C138.538 20.8416 138.228 19.812 137.604 19.1724C136.979 18.5328 135.951 18.2156 134.502 18.2156C132.608 18.2156 131.185 19.0164 130.235 20.618V38.246H123.497V13.2444H129.837H129.842Z" fill="#333333"/>
</g>
<defs>
<clipPath id="clip0_11_108">
<rect width="201" height="52" fill="white"/>
</clipPath>
</defs>
</svg>
