<svg width="533" height="518" viewBox="0 0 533 518" fill="none" xmlns="http://www.w3.org/2000/svg">
<circle cx="274.733" cy="262.9" r="120.467" fill="#F8F8F8"/>
<circle cx="274.733" cy="262.9" r="218.767" stroke="#DEDEDE" stroke-linecap="round" stroke-dasharray="10 10"/>
<circle cx="483.6" cy="262.9" r="48.9" fill="white" stroke="#DEDEDE"/>
<circle cx="274.733" cy="468.3" r="48.9" fill="white" stroke="#DEDEDE"/>
<circle cx="49.4" cy="262.9" r="48.9" fill="white" stroke="#DEDEDE"/>
<circle cx="274.733" cy="49.7" r="48.9" fill="white" stroke="#DEDEDE"/>
<circle cx="434.2" cy="116.433" r="48.9" fill="white" stroke="#DEDEDE"/>
<circle cx="115.267" cy="116.433" r="48.9" fill="white" stroke="#DEDEDE"/>
<circle cx="115.267" cy="418.9" r="48.9" fill="white" stroke="#DEDEDE"/>
<circle cx="434.2" cy="418.9" r="48.9" fill="white" stroke="#DEDEDE"/>
<path d="M302.356 241.084C317.398 256.453 337.165 280.509 335.945 303.127C333.066 326.113 304.103 319.667 289.846 311.893C277.201 305.614 266.069 296.926 256.134 287.167C246.357 277.253 237.643 266.155 231.338 253.553C223.554 239.355 217.08 210.447 240.13 207.592C262.776 206.354 286.967 226.106 302.356 241.084ZM301.852 241.586C287.483 227.723 270.257 214.897 250.277 211.295C222.154 207.257 227.899 233.779 237.722 250.207C244.184 261.661 252.64 272.055 261.981 281.346C271.299 290.669 281.715 299.09 293.206 305.536C309.625 315.295 336.292 321.094 332.226 293.023C328.609 273.104 315.751 255.928 301.841 241.597L301.852 241.586Z" fill="#DEDEDE"/>
<path d="M302.356 285.517C286.945 300.518 262.82 320.225 240.129 319.009C217.08 316.143 223.542 287.257 231.337 273.048C237.643 260.434 246.356 249.337 256.134 239.434C266.068 229.675 277.201 220.987 289.846 214.708C304.092 206.945 333.077 200.488 335.944 223.474C337.187 246.058 317.375 270.171 302.356 285.517ZM301.852 285.015C315.751 270.695 328.62 253.509 332.237 233.59C336.28 205.551 309.681 211.284 293.217 221.076C281.726 227.522 271.31 235.943 261.991 245.267C252.651 254.557 244.195 264.94 237.733 276.405C227.944 292.778 222.131 319.366 250.288 315.318C270.268 311.715 287.494 298.889 301.863 285.026L301.852 285.015Z" fill="#DEDEDE"/>
<path d="M277 67.3C272.226 67.3 267.648 65.4036 264.272 62.028C260.896 58.6523 259 54.0739 259 49.3C259 44.5262 260.896 39.9478 264.272 36.5721C267.648 33.1965 272.226 31.3 277 31.3C286.94 31.3 295 38.464 295 47.3C295 49.42 294.052 51.456 292.364 52.956C290.676 54.456 288.386 55.3 286 55.3H281C280.108 55.2857 279.236 55.5701 278.524 56.108C277.812 56.646 277.301 57.4066 277.071 58.2689C276.841 59.1311 276.906 60.0455 277.255 60.8666C277.605 61.6877 278.219 62.3682 279 62.8C279.399 63.1685 279.673 63.6528 279.783 64.185C279.893 64.7171 279.833 65.2703 279.613 65.7668C279.392 66.2633 279.021 66.6783 278.553 66.9533C278.084 67.2283 277.541 67.3495 277 67.3Z" stroke="#777777" stroke-width="1.5" stroke-linecap="round" stroke-linejoin="round"/>
<path d="M268 46.3C268 46.8305 268.211 47.3392 268.586 47.7143C268.961 48.0893 269.47 48.3 270 48.3C270.53 48.3 271.039 48.0893 271.414 47.7143C271.789 47.3392 272 46.8305 272 46.3C272 45.7696 271.789 45.2609 271.414 44.8858C271.039 44.5108 270.53 44.3 270 44.3C269.47 44.3 268.961 44.5108 268.586 44.8858C268.211 45.2609 268 45.7696 268 46.3Z" stroke="#777777" stroke-width="1.5" stroke-linecap="round" stroke-linejoin="round"/>
<path d="M276 40.3C276 40.8305 276.211 41.3392 276.586 41.7143C276.961 42.0893 277.47 42.3 278 42.3C278.53 42.3 279.039 42.0893 279.414 41.7143C279.789 41.3392 280 40.8305 280 40.3C280 39.7696 279.789 39.2609 279.414 38.8858C279.039 38.5108 278.53 38.3 278 38.3C277.47 38.3 276.961 38.5108 276.586 38.8858C276.211 39.2609 276 39.7696 276 40.3Z" stroke="#777777" stroke-width="1.5" stroke-linecap="round" stroke-linejoin="round"/>
<path d="M284 46.3C284 46.8305 284.211 47.3392 284.586 47.7143C284.961 48.0893 285.47 48.3 286 48.3C286.53 48.3 287.039 48.0893 287.414 47.7143C287.789 47.3392 288 46.8305 288 46.3C288 45.7696 287.789 45.2609 287.414 44.8858C287.039 44.5108 286.53 44.3 286 44.3C285.47 44.3 284.961 44.5108 284.586 44.8858C284.211 45.2609 284 45.7696 284 46.3Z" stroke="#777777" stroke-width="1.5" stroke-linecap="round" stroke-linejoin="round"/>
<path d="M437 122.3H420C419.47 122.3 418.961 122.089 418.586 121.714C418.211 121.339 418 120.83 418 120.3V100.3C418 99.7696 418.211 99.2609 418.586 98.8858C418.961 98.5108 419.47 98.3 420 98.3H452C452.53 98.3 453.039 98.5108 453.414 98.8858C453.789 99.2609 454 99.7696 454 100.3V116.3M426 130.3H434M430 122.3V130.3M452 132.3L456 128.3L452 124.3M446 124.3L442 128.3L446 132.3" stroke="#777777" stroke-width="1.5" stroke-linecap="round" stroke-linejoin="round"/>
<path d="M475 273.3C476.061 273.3 477.078 273.721 477.828 274.472C478.579 275.222 479 276.239 479 277.3C479 278.361 478.579 279.378 477.828 280.128C477.078 280.879 476.061 281.3 475 281.3C473.939 281.3 472.922 280.879 472.172 280.128C471.421 279.378 471 278.361 471 277.3C471 276.239 471.421 275.222 472.172 274.472C472.922 273.721 473.939 273.3 475 273.3ZM475 273.3H486M475 273.3V245.3H471M475 249.3L503 251.3L501 265.3H475M503 281.3L507 277.3L503 273.3M497 273.3L493 277.3L497 281.3" stroke="#777777" stroke-width="1.5" stroke-linecap="round" stroke-linejoin="round"/>
<path d="M435 437.3H428C426.939 437.3 425.922 436.879 425.172 436.128C424.421 435.378 424 434.361 424 433.3V405.3C424 404.239 424.421 403.222 425.172 402.472C425.922 401.721 426.939 401.3 428 401.3H444C445.061 401.3 446.078 401.721 446.828 402.472C447.579 403.222 448 404.239 448 405.3V421.3M452 437.3L456 433.3L452 429.3M446 429.3L442 433.3L446 437.3M434 403.3H438M436 429.3V429.32" stroke="#777777" stroke-width="1.5" stroke-linecap="round" stroke-linejoin="round"/>
<path d="M115.866 101.3H102V133.3H128V117.3M120 125.3H110M122 101.3V97.3M128 103.3L132 99.3M130 109.3H134M110 117.3H120V109.3H110V117.3Z" stroke="#777777" stroke-width="1.5" stroke-linecap="round" stroke-linejoin="round"/>
<path d="M65 255.38L40.756 279.628C40.2255 280.159 39.5956 280.58 38.9024 280.867C38.2091 281.154 37.4661 281.302 36.7157 281.302C35.2002 281.302 33.7468 280.701 32.675 279.629C31.6033 278.558 31.0011 277.104 31.0009 275.589C31.0007 274.073 31.6025 272.62 32.674 271.548L56.918 247.3M39 265.3H55M55 245.3L67 257.3M63 269.3L66 272.5C66.5092 273.077 66.8409 273.789 66.9555 274.551C67.07 275.312 66.9625 276.09 66.6458 276.792C66.329 277.493 65.8166 278.088 65.1699 278.506C64.5232 278.924 63.7698 279.146 63 279.146C62.2302 279.146 61.4768 278.924 60.8301 278.506C60.1834 278.088 59.671 277.493 59.3542 276.792C59.0375 276.09 58.93 275.312 59.0445 274.551C59.1591 273.789 59.4908 273.077 60 272.5L63 269.3Z" stroke="#777777" stroke-width="1.5" stroke-linecap="round" stroke-linejoin="round"/>
<path d="M122 425.3L130.14 433.868C130.826 434.589 131.726 435.069 132.708 435.235C133.689 435.401 134.697 435.244 135.582 434.788C136.466 434.332 137.179 433.602 137.613 432.706C138.048 431.811 138.18 430.799 137.99 429.822L134.79 413.358M110 413.3V417.3M108 415.3H112M122 415.3H126M125 405.3C127.652 405.3 130.196 406.354 132.071 408.229C133.946 410.104 135 412.648 135 415.3C135 417.952 133.946 420.496 132.071 422.371C130.196 424.246 127.652 425.3 125 425.3H114L105.97 433.754C105.283 434.477 104.38 434.958 103.396 435.123C102.413 435.288 101.402 435.129 100.517 434.669C99.6312 434.21 98.919 433.476 98.4875 432.576C98.056 431.677 97.9284 430.662 98.124 429.684L101.392 413.338C101.846 411.071 103.071 409.031 104.859 407.566C106.647 406.1 108.888 405.3 111.2 405.3H125Z" stroke="#777777" stroke-width="1.5" stroke-linecap="round" stroke-linejoin="round"/>
<path d="M272 461.3H278M261 461.3H266M275 461.3L281 483.3L289 465.3M289 465.3C289.354 464.244 291 462.572 291 460.3C291 456.74 289.448 455.3 287.25 455.3C285.454 455.3 285 456.924 285 458.158C285 461.818 289 462.274 289 465.3ZM264 461.3L271 483.3L277 469.3M259 467.3C259 469.664 259.466 472.004 260.37 474.188C261.275 476.372 262.601 478.357 264.272 480.028C265.944 481.699 267.928 483.025 270.112 483.93C272.296 484.834 274.636 485.3 277 485.3C279.364 485.3 281.704 484.834 283.888 483.93C286.072 483.025 288.056 481.699 289.728 480.028C291.399 478.357 292.725 476.372 293.63 474.188C294.534 472.004 295 469.664 295 467.3C295 464.936 294.534 462.596 293.63 460.412C292.725 458.228 291.399 456.244 289.728 454.572C288.056 452.901 286.072 451.575 283.888 450.67C281.704 449.766 279.364 449.3 277 449.3C274.636 449.3 272.296 449.766 270.112 450.67C267.928 451.575 265.944 452.901 264.272 454.572C262.601 456.244 261.275 458.228 260.37 460.412C259.466 462.596 259 464.936 259 467.3Z" stroke="#777777" stroke-width="1.5" stroke-linecap="round" stroke-linejoin="round"/>
</svg>
