<svg width="533" height="518" viewBox="0 0 533 518" fill="none" xmlns="http://www.w3.org/2000/svg">
<circle cx="274.733" cy="262.9" r="120.467" fill="#F8F8F8"/>
<circle cx="274.733" cy="262.9" r="218.767" stroke="#DEDEDE" stroke-linecap="round" stroke-dasharray="10 10"/>
<circle cx="483.6" cy="262.9" r="48.9" fill="white" stroke="#DEDEDE"/>
<circle cx="274.733" cy="468.3" r="48.9" fill="white" stroke="#DEDEDE"/>
<circle cx="49.4" cy="262.9" r="48.9" fill="white" stroke="#DEDEDE"/>
<circle cx="274.733" cy="49.7001" r="48.9" fill="white" stroke="#DEDEDE"/>
<circle cx="434.2" cy="116.433" r="48.9" fill="white" stroke="#DEDEDE"/>
<circle cx="115.267" cy="116.433" r="48.9" fill="white" stroke="#DEDEDE"/>
<circle cx="115.267" cy="418.9" r="48.9" fill="white" stroke="#DEDEDE"/>
<circle cx="434.2" cy="418.9" r="48.9" fill="white" stroke="#DEDEDE"/>
<path d="M303.206 241.547C318.248 256.916 338.015 280.973 336.795 303.591C333.916 326.577 304.953 320.13 290.696 312.357C278.051 306.078 266.919 297.39 256.984 287.631C247.207 277.716 238.493 266.619 232.188 254.016C224.404 239.819 217.93 210.911 240.98 208.055C263.626 206.817 287.818 226.569 303.206 241.547ZM302.702 242.049C288.333 228.186 271.107 215.361 251.127 211.758C223.004 207.721 228.749 234.242 238.572 250.67C245.034 262.124 253.49 272.519 262.831 281.809C272.149 291.133 282.565 299.553 294.056 306C310.475 315.758 337.142 321.558 333.076 293.486C329.459 273.567 316.601 256.392 302.691 242.06L302.702 242.049Z" fill="#DEDEDE"/>
<path d="M303.206 285.981C287.795 300.981 263.67 320.688 240.979 319.473C217.93 316.606 224.392 287.721 232.187 273.512C238.493 260.898 247.206 249.801 256.984 239.897C266.918 230.138 278.051 221.45 290.696 215.171C304.942 207.409 333.927 200.951 336.794 223.937C338.037 246.522 318.225 270.634 303.206 285.981ZM302.702 285.479C316.601 271.159 329.47 253.972 333.087 234.053C337.13 206.015 310.531 211.747 294.067 221.54C282.576 227.986 272.16 236.406 262.842 245.73C253.501 255.02 245.045 265.404 238.583 276.869C228.794 293.241 222.981 319.83 251.138 315.781C271.118 312.179 288.344 299.353 302.713 285.49L302.702 285.479Z" fill="#DEDEDE"/>
<path d="M284 68C279.226 68 274.648 66.1036 271.272 62.7279C267.896 59.3523 266 54.7739 266 50C266 45.2261 267.896 40.6477 271.272 37.2721C274.648 33.8964 279.226 32 284 32C293.94 32 302 39.164 302 48C302 50.12 301.052 52.156 299.364 53.656C297.676 55.156 295.386 56 293 56H288C287.108 55.9856 286.236 56.27 285.524 56.808C284.812 57.346 284.301 58.1066 284.071 58.9688C283.841 59.8311 283.906 60.7455 284.255 61.5665C284.605 62.3876 285.219 63.0682 286 63.5C286.399 63.8685 286.673 64.3528 286.783 64.8849C286.893 65.4171 286.833 65.9702 286.613 66.4668C286.392 66.9633 286.021 67.3782 285.553 67.6532C285.084 67.9282 284.541 68.0495 284 68Z" stroke="#777777" stroke-width="1.5" stroke-linecap="round" stroke-linejoin="round"/>
<path d="M275 47C275 47.5304 275.211 48.0391 275.586 48.4142C275.961 48.7893 276.47 49 277 49C277.53 49 278.039 48.7893 278.414 48.4142C278.789 48.0391 279 47.5304 279 47C279 46.4696 278.789 45.9609 278.414 45.5858C278.039 45.2107 277.53 45 277 45C276.47 45 275.961 45.2107 275.586 45.5858C275.211 45.9609 275 46.4696 275 47Z" stroke="#777777" stroke-width="1.5" stroke-linecap="round" stroke-linejoin="round"/>
<path d="M283 41C283 41.5304 283.211 42.0391 283.586 42.4142C283.961 42.7893 284.47 43 285 43C285.53 43 286.039 42.7893 286.414 42.4142C286.789 42.0391 287 41.5304 287 41C287 40.4696 286.789 39.9609 286.414 39.5858C286.039 39.2107 285.53 39 285 39C284.47 39 283.961 39.2107 283.586 39.5858C283.211 39.9609 283 40.4696 283 41Z" stroke="#777777" stroke-width="1.5" stroke-linecap="round" stroke-linejoin="round"/>
<path d="M291 47C291 47.5304 291.211 48.0391 291.586 48.4142C291.961 48.7893 292.47 49 293 49C293.53 49 294.039 48.7893 294.414 48.4142C294.789 48.0391 295 47.5304 295 47C295 46.4696 294.789 45.9609 294.414 45.5858C294.039 45.2107 293.53 45 293 45C292.47 45 291.961 45.2107 291.586 45.5858C291.211 45.9609 291 46.4696 291 47Z" stroke="#777777" stroke-width="1.5" stroke-linecap="round" stroke-linejoin="round"/>
<path d="M444 123H427C426.47 123 425.961 122.789 425.586 122.414C425.211 122.039 425 121.53 425 121V101C425 100.47 425.211 99.9609 425.586 99.5858C425.961 99.2107 426.47 99 427 99H459C459.53 99 460.039 99.2107 460.414 99.5858C460.789 99.9609 461 100.47 461 101V117M433 131H441M437 123V131M459 133L463 129L459 125M453 125L449 129L453 133" stroke="#777777" stroke-width="1.5" stroke-linecap="round" stroke-linejoin="round"/>
<path d="M482 274C483.061 274 484.078 274.421 484.828 275.172C485.579 275.922 486 276.939 486 278C486 279.061 485.579 280.078 484.828 280.828C484.078 281.579 483.061 282 482 282C480.939 282 479.922 281.579 479.172 280.828C478.421 280.078 478 279.061 478 278C478 276.939 478.421 275.922 479.172 275.172C479.922 274.421 480.939 274 482 274ZM482 274H493M482 274V246H478M482 250L510 252L508 266H482M510 282L514 278L510 274M504 274L500 278L504 282" stroke="#777777" stroke-width="1.5" stroke-linecap="round" stroke-linejoin="round"/>
<path d="M442 438H435C433.939 438 432.922 437.579 432.172 436.828C431.421 436.078 431 435.061 431 434V406C431 404.939 431.421 403.922 432.172 403.172C432.922 402.421 433.939 402 435 402H451C452.061 402 453.078 402.421 453.828 403.172C454.579 403.922 455 404.939 455 406V422M459 438L463 434L459 430M453 430L449 434L453 438M441 404H445M443 430V430.02" stroke="#777777" stroke-width="1.5" stroke-linecap="round" stroke-linejoin="round"/>
<path d="M122.866 102H109V134H135V118M127 126H117M129 102V98M135 104L139 100M137 110H141M117 118H127V110H117V118Z" stroke="#777777" stroke-width="1.5" stroke-linecap="round" stroke-linejoin="round"/>
<path d="M72 256.08L47.756 280.328C47.2255 280.859 46.5956 281.28 45.9024 281.567C45.2091 281.854 44.4661 282.002 43.7157 282.002C42.2002 282.002 40.7468 281.4 39.675 280.329C38.6033 279.258 38.0011 277.804 38.0009 276.289C38.0007 274.773 38.6025 273.32 39.674 272.248L63.918 248M46 266H62M62 246L74 258M70 270L73 273.2C73.5092 273.777 73.8409 274.489 73.9555 275.251C74.07 276.012 73.9625 276.79 73.6458 277.492C73.329 278.193 72.8166 278.788 72.1699 279.206C71.5232 279.624 70.7698 279.846 70 279.846C69.2302 279.846 68.4768 279.624 67.8301 279.206C67.1834 278.788 66.671 278.193 66.3542 277.492C66.0375 276.79 65.93 276.012 66.0445 275.251C66.1591 274.489 66.4908 273.777 67 273.2L70 270Z" stroke="#777777" stroke-width="1.5" stroke-linecap="round" stroke-linejoin="round"/>
<path d="M129 426L137.14 434.568C137.826 435.289 138.726 435.769 139.708 435.935C140.689 436.101 141.697 435.944 142.582 435.488C143.466 435.032 144.179 434.302 144.613 433.406C145.048 432.511 145.18 431.499 144.99 430.522L141.79 414.058M117 414V418M115 416H119M129 416H133M132 406C134.652 406 137.196 407.054 139.071 408.929C140.946 410.804 142 413.348 142 416C142 418.652 140.946 421.196 139.071 423.071C137.196 424.946 134.652 426 132 426H121L112.97 434.454C112.283 435.177 111.38 435.658 110.396 435.823C109.413 435.988 108.402 435.829 107.517 435.369C106.631 434.91 105.919 434.176 105.488 433.276C105.056 432.377 104.928 431.362 105.124 430.384L108.392 414.038C108.846 411.771 110.071 409.731 111.859 408.266C113.647 406.8 115.888 405.999 118.2 406H132Z" stroke="#777777" stroke-width="1.5" stroke-linecap="round" stroke-linejoin="round"/>
<path d="M279 462H285M268 462H273M282 462L288 484L296 466M296 466C296.354 464.944 298 463.272 298 461C298 457.44 296.448 456 294.25 456C292.454 456 292 457.624 292 458.858C292 462.518 296 462.974 296 466ZM271 462L278 484L284 470M266 468C266 470.364 266.466 472.704 267.37 474.888C268.275 477.072 269.601 479.056 271.272 480.728C272.944 482.399 274.928 483.725 277.112 484.63C279.296 485.534 281.636 486 284 486C286.364 486 288.704 485.534 290.888 484.63C293.072 483.725 295.056 482.399 296.728 480.728C298.399 479.056 299.725 477.072 300.63 474.888C301.534 472.704 302 470.364 302 468C302 465.636 301.534 463.296 300.63 461.112C299.725 458.928 298.399 456.944 296.728 455.272C295.056 453.601 293.072 452.275 290.888 451.37C288.704 450.466 286.364 450 284 450C281.636 450 279.296 450.466 277.112 451.37C274.928 452.275 272.944 453.601 271.272 455.272C269.601 456.944 268.275 458.928 267.37 461.112C266.466 463.296 266 465.636 266 468Z" stroke="#777777" stroke-width="1.5" stroke-linecap="round" stroke-linejoin="round"/>
</svg>
